<?xml version="1.0" encoding="UTF-8"?>
<svg id="Camada_1" xmlns="http://www.w3.org/2000/svg" version="1.1" viewBox="0 0 157.28 78.22">
  <!-- Generator: Adobe Illustrator 29.6.1, SVG Export Plug-In . SVG Version: 2.1.1 Build 9)  -->
  <defs>
    <style>
      .st0 {
        fill: #dd7e71;
      }

      .st1 {
        fill: #de8174;
      }

      .st2 {
        fill: #dd7e70;
      }

      .st3 {
        fill: none;
      }

      .st4 {
        fill: #dd8173;
      }

      .st5 {
        fill: #384370;
      }

      .st6 {
        fill: #dd8072;
      }

      .st7 {
        fill: #de8275;
      }

      .st8 {
        fill: #dd7f71;
      }

      .st9 {
        fill: #394371;
      }

      .st10 {
        fill: #de8376;
      }

      .st11 {
        fill: #dd8174;
      }

      .st12 {
        fill: #384371;
      }
    </style>
  </defs>
  <rect class="st3" width="157.28" height="78.22"/>
  <g>
    <path class="st9" d="M104.95,56.78h-2.41l-.3-3.34c-.82,1.78-2.49,2.94-4.35,3.47-4.37,1.24-10.76.44-12-4.74-.77-3.21.58-5.98,3.56-7.31,3.89-1.73,8.67-.96,12.82-1.19.08-.06.06-1.28.05-1.48-.06-1.48-.47-2.96-1.68-3.9-2.04-1.58-6.66-1.67-8.86-.4-1.35.78-2.03,2.19-2.31,3.68h-2.52c.27-3.02,2.13-5.26,4.99-6.2,2.64-.86,7.04-.75,9.52.57,3.93,2.09,3.27,5.88,3.29,9.63.01,2.26.08,4.58,0,6.85l.21,4.35ZM102.33,45.78l-7.9.06c-3.13.21-6.65,1.29-6.15,5.17.54,4.25,5.74,4.67,9.07,3.76,1.89-.51,3.44-1.73,4.23-3.53.72-1.72.78-3.6.76-5.45Z"/>
    <path class="st9" d="M27.77,41.57c.25-2.19,1.33-4.22,3.23-5.38,2.89-1.76,8.22-1.8,11.21-.28,2.23,1.13,3.27,3.1,3.39,5.58.19,3.97-.15,8.1,0,12.09l.22,3.2h-2.41c-.22-1.1-.2-2.22-.3-3.34l-.79,1.23c-4.43,4.82-16.52,3.48-15.75-4.76.48-5.11,5.64-6.01,9.87-6.21h6.7c.08-1.98,0-4.22-1.76-5.49-2.05-1.48-6.71-1.59-8.84-.26-1.32.82-1.94,2.15-2.26,3.62h-2.52ZM43.14,45.78l-7.9.06c-2.76.25-5.97.95-6.16,4.29-.33,5.82,8.18,6.09,11.57,3.42,2.32-1.82,2.59-5.01,2.49-7.76Z"/>
    <path class="st5" d="M52.08,35.45s.04-.06.08-.03l.06.17c.17,4.36-.24,8.9,0,13.24.24,4.48,2.81,6.69,7.3,6.1,4.85-.65,5.97-4.58,6.21-8.89v-10.58h2.33s.09-.1.13.03c.1.35,0,1.12,0,1.52.04,6.59-.02,13.18.06,19.77h-2.35l-.16-3.99c-.12-.02-.09,0-.12.07-.19.34-.32.76-.52,1.12-1.18,2.02-3.08,2.97-5.35,3.29-5.47.78-9.64-1.62-9.98-7.4v-14.41c.77,0,1.55,0,2.32,0Z"/>
    <path class="st2" d="M123.68,30.22c-4.09,3.36-10.25,1.99-12.48-2.8-2.95-6.36,3.03-13.19,9.73-11.15,6.11,1.86,7.7,9.89,2.75,13.95ZM118.23,18.4c-4.12.22-6.61,4.79-4.54,8.39,2.11,3.66,7.48,3.74,9.63.09,2.28-3.88-.61-8.71-5.09-8.48Z"/>
    <path class="st12" d="M75.44,35.39l.08.14.11,4.84c.19-.17.26-.5.39-.73,1.71-3.06,4.96-4.87,8.47-4.8v2.57c-2.8-.06-5.47,1.16-7.07,3.46-1.12,1.61-1.6,3.43-1.79,5.37v10.53h-2.52l.03-21.38h2.3Z"/>
    <path class="st0" d="M114.29,8.61c4.14-.52,4.5,5.65.53,5.78-3.66.12-3.99-5.35-.53-5.78Z"/>
    <path class="st8" d="M128.73,28.18c2.12-.19,2.86,3.08.75,3.76-2.83.92-3.66-3.51-.75-3.76Z"/>
    <path class="st7" d="M50.58,64.82h.59s1.62,4.05,1.62,4.05l1.5-4.02.66-.03v4.7c-.16-.02-.38.06-.49-.08v-3.69l-1.48,3.77h-.41s-1.61-3.82-1.61-3.82l.05,3.69-.09.13h-.35s0-4.7,0-4.7Z"/>
    <path class="st10" d="M61.14,64.82h.54c.83,1.23,1.63,2.48,2.46,3.7.03.05,0,.1.12.07v-3.77h.44v4.7l-.46-.06c-.82-1.31-1.78-2.54-2.55-3.88-.02-.01-.11.07-.11.08v3.86h-.44v-4.7Z"/>
    <path class="st8" d="M70.93,64.82c.18.02.41-.06.55.08.84,1.21,1.62,2.46,2.45,3.68.03.05,0,.1.12.07v-3.83h.44v4.62l-.09.07c-.2.04-.36.02-.49-.15l-2.51-3.78c-.18,0-.03.11-.03.14v3.72l-.09.07h-.35s0-4.69,0-4.69Z"/>
    <path class="st4" d="M80.77,69.52h-.38c0-.15,0-.31,0-.47,0-.05.04-.17-.08-.14-.03,0-.25.33-.36.41-.58.46-1.51.38-2.07-.06-1.18-.92-1.13-3.67.29-4.35,1.2-.58,2.3.01,2.61,1.27l-.49.05c-.22-.77-.65-1.2-1.51-1.08-1.59.21-1.68,3.26-.38,3.92,1.03.52,2-.28,1.93-1.36h-1.15v-.38h1.59v2.19Z"/>
    <path class="st4" d="M35.75,64.99c.07.11-.1.35-.19.43-1.35-.94-2.31.38-2.32,1.7.04.04.47-.31.55-.35.81-.39,1.92-.22,2.21.73.65,2.16-2.43,3.11-3.06.82-.53-1.93.47-4.44,2.81-3.33ZM34.49,66.96c-.51.03-1.02.32-1.25.78.14.51.3,1.22.86,1.43,1.7.65,2.25-2.33.38-2.21Z"/>
    <path class="st11" d="M39.79,64.72c2.53-.37,2.54,4.27.83,4.83-2.78.9-3.07-4.5-.83-4.83ZM40.77,69.01c.93-.74.93-4.32-1.08-3.84-1.16.28-1.12,2.96-.43,3.72.38.43,1.07.47,1.51.12Z"/>
    <path class="st11" d="M29.57,67.06c.75.21.99.79.85,1.53-.19,1.06-1.65,1.26-2.47.83-.32-.17-1.07-.76-.33-.88.59,1.09,2.71.87,2.37-.56-.16-.7-1.09-.81-1.68-.75v-.38c.78.02,1.81-.11,1.56-1.15-.15-.64-1.05-.66-1.54-.44-.24.11-.36.33-.58.44l-.25-.25c.8-1.23,3.23-.92,2.82.86-.09.39-.47.54-.74.76Z"/>
    <path class="st6" d="M58.29,64.82v4.62c-.11.13-.38.13-.49,0v-4.62h.49Z"/>
    <rect class="st11" x="67.59" y="64.82" width=".44" height="4.7"/>
    <path class="st1" d="M44.82,64.72c1.47-.27,1.53,1.93.1,1.79-1.01-.1-1-1.62-.1-1.79ZM44.93,64.99c-.88.17-.4,1.61.39,1.16.65-.37.22-1.28-.39-1.16Z"/>
  </g>
</svg>