<?xml version="1.0" encoding="UTF-8"?>
<svg id="Camada_1" xmlns="http://www.w3.org/2000/svg" version="1.1" viewBox="0 0 157.28 78.22">
  <!-- Generator: Adobe Illustrator 29.6.1, SVG Export Plug-In . SVG Version: 2.1.1 Build 9)  -->
  <defs>
    <style>
      .st0 {
        fill: none;
      }

      .st1 {
        fill: #d49e0d;
      }

      .st2 {
        fill: #3c3834;
      }
    </style>
  </defs>
  <rect class="st0" width="157.28" height="78.22"/>
  <g id="Ebene_x5F_1">
    <path class="st2" d="M19.46,67.6c.47-.71.47-1.82.47-2.77v-1.91c0-1.47-.65-2.88-1.47-4.62-.85-1.74-1.94-3.38-2.8-4.15h1.82c.76,0,.91.18,1.27.79.82,1.32,1.79,3.71,2.21,5.21.09.32.18.65.32.65s.3-.38.5-.74l1.44-2.56c.47-.85.94-1.88.94-2.5,0-.32-.09-.59-.32-.85h2.65l-2.38,3.74c-1.47,2.24-2.3,3.3-2.3,6.06v.88c0,.94,0,2.06.47,2.77h-2.82,0Z"/>
    <path class="st2" d="M31.38,56.33c-.06-.15-.18-.5-.35-.5-.21,0-.32.41-.35.5l-1.85,4.53h4.03l-1.47-4.53h0ZM35.5,67.6l-2.3-5.91h-4.74c-.91,1.85-1.85,3.91-1.85,5.12,0,.26.03.53.06.79h-2.62l.44-.59c1.21-1.53,5.56-10.56,5.56-12.3v-.56h2.5c1.35,4.21,2.71,8.77,4.8,12.68l.44.76h-2.3,0Z"/>
    <path class="st2" d="M52.45,54.15c-.5.79-.44,1.94-.44,3,0,2.53-.09,5.15.18,7.68.12.94.18,1.91.65,2.77h-3.09c.38-1.06.38-2.62.38-3.8v-7c0-.21,0-.47-.15-.47s-.21.15-.26.32l-4.74,11.15-4-10.36c-.24-.59-.38-1.12-.56-1.12-.21,0-.21.38-.21.71l-.03,6.86c0,1.65,0,3,.47,3.71h-2.5l.18-.26c.79-1.12.88-4.44.88-6.74v-5.27c0-.56-.03-.85-.53-1.18h2.62c.24,0,.56.03.65.32l3.12,9.18c.09.32.18.68.32.68.21,0,.26-.21.38-.5l3.65-8.8c.21-.44.35-.88.88-.88h2.15,0Z"/>
    <path class="st2" d="M59.84,56.33c-.04-.15-.19-.5-.36-.5-.21,0-.32.41-.35.5l-1.85,4.53h4.04l-1.47-4.53h0ZM63.98,67.6l-2.32-5.91h-4.74c-.91,1.85-1.85,3.91-1.85,5.12,0,.26.03.53.06.79h-2.62l.47-.59c1.18-1.53,5.53-10.56,5.53-12.3l.03-.56h2.47c1.35,4.21,2.71,8.77,4.83,12.68l.41.76h-2.27,0Z"/>
    <path class="st2" d="M66.75,67.6c.74-1.74.74-4.3.74-6.15v-4.5c0-1.03-.03-2.18-.68-2.8h2.15c.38,0,.59,0,.82.32.44.59,1.79,2.85,2.44,3.8l4.21,5.91c.15.21.33.5.44.5.15,0,.15-.21.15-.38v-7.44c0-1.44-.21-2.15-.5-2.71h2.18c-.5.97-.62,2.06-.62,3.15v8.42c0,.71.03,1.32.03,1.97h-1.5l-7.71-10.98c-.09-.15-.15-.24-.23-.24-.1,0-.13.12-.13.29v5.44c0,1.68-.03,3.8.62,5.38h-2.41Z"/>
    <path class="st2" d="M85.97,56.33c-.06-.15-.18-.5-.35-.5-.21,0-.32.41-.38.5l-1.82,4.53h4.03l-1.47-4.53h0ZM90.09,67.6l-2.29-5.91h-4.75c-.91,1.85-1.85,3.91-1.85,5.12,0,.26.03.53.06.79h-2.65l.47-.59c1.21-1.53,5.56-10.56,5.56-12.3v-.56h2.5c1.35,4.21,2.71,8.77,4.8,12.68l.44.76h-2.3Z"/>
    <path class="st1" d="M104.18,56.33c-1.44-1.18-2.65-1.59-4.27-1.59-3.27,0-5.18,2.77-5.18,5.83,0,3.91,1.89,6.44,5.94,6.44.53,0,1.03-.06,1.56-.15.21-.71.21-1.44.21-2.18v-1.03c0-.94,0-2.03-.47-2.77h2.82c-.47.74-.47,1.82-.47,2.77v2.12c0,.53.09,1.29.15,1.82-1.27.21-3,.32-4.47.32-4.44,0-7.44-1.94-7.44-6.68,0-5.12,3.71-7.44,8.42-7.44,1.06,0,2.12.18,3.21.24v2.3h0Z"/>
    <path class="st1" d="M112.81,54.74c-3.04,0-4.36,2.8-4.36,5.83,0,2.77.94,6.44,4.36,6.44,3.02,0,4.32-2.8,4.32-5.83,0-2.77-.94-6.44-4.32-6.44ZM112.63,67.92c-4.41,0-6.36-3.03-6.36-6.77,0-4,2.3-7.36,6.68-7.36s6.39,3.06,6.39,6.8c0,4-2.32,7.33-6.71,7.33h0Z"/>
    <path class="st1" d="M121.66,56.92c0-.94,0-2.06-.44-2.77h2.82c-.47.71-.47,1.82-.47,2.77v9.83h1.59c1.18,0,2.27-.15,3.33-1.18l-.41,1.97c-.41.03-.85.06-1.28.06h-5.84c.65-.82.71-3.8.71-4.8v-5.89h0Z"/>
    <path class="st1" d="M131.64,65.24c0,1.5.44,1.59,2.71,1.59,3.74,0,5.09-2.65,5.09-6.12s-2-5.94-5.77-5.94c-.77,0-1.53.09-2,.18,0,.32-.03.65-.03,1v9.3h0ZM129.75,56.92c0-.94,0-2.06-.47-2.77,2.12,0,4.27-.21,6.41-.21,3.5,0,5.91,2.65,5.91,6.41,0,4.71-3.24,7.33-7.24,7.33-2.15,0-3.62-.09-5.09-.09.47-.71.47-1.82.47-2.77v-7.92h0Z"/>
    <polygon class="st1" points="78.64 42.91 61.48 30.46 68.04 10.3 89.23 10.3 95.79 30.46 78.64 42.91"/>
    <path class="st2" d="M78.64,42.88c.35-4.44,1.85-19.54,10.59-32.57-4.71,4.74-7.21,7.97-10.56,12.74h-.06c-3.35-4.77-5.86-8-10.56-12.74,8.74,13.04,10.24,28.13,10.59,32.57v.03h0v-.03h0Z"/>
    <path class="st1" d="M68.04,10.3c4.71,4.74,7.21,7.97,10.56,12.74h.06c3.35-4.77,5.86-8,10.56-12.74-8.74,13.04-10.24,28.13-10.59,32.57h0c-.35-4.44-1.85-19.54-10.59-32.57h0ZM88.29,11.51l-.62.62c-3.68,3.86-5.94,6.83-8.89,11.04l-.12.06-.18-.06c-2.94-4.21-5.21-7.18-8.89-11.04l-.59-.62.74,1.18c6.44,10.89,8.3,22.63,8.86,28.19l.03.21.03-.35c.59-5.62,2.47-17.24,8.89-28.04l.74-1.18h0Z"/>
  </g>
</svg>