<?xml version="1.0" encoding="UTF-8"?>
<svg id="Camada_1" xmlns="http://www.w3.org/2000/svg" version="1.1" viewBox="0 0 157.28 78.22">
  <!-- Generator: Adobe Illustrator 29.6.1, SVG Export Plug-In . SVG Version: 2.1.1 Build 9)  -->
  <defs>
    <style>
      .st0 {
        fill: none;
      }

      .st1 {
        fill: #f8fbfc;
      }

      .st2 {
        fill: #085255;
      }

      .st3 {
        fill: #014f53;
      }

      .st4 {
        fill: #0b5255;
      }

      .st5 {
        fill: #035054;
      }

      .st6 {
        fill: #f7fbfb;
      }
    </style>
  </defs>
  <rect class="st0" width="157.28" height="78.22"/>
  <g>
    <path class="st5" d="M44.36,37.71h19.81v18.86s.16.17.17.17h12.95s.17-.16.17-.17v-18.86h18.91v-13.4h-19.02V4.28l37.27,37.2c.14.15.14.31,0,.46l-33.26,32.8-37-37.03ZM107.81,42.29c1.03-1.14,1.79-2.34.81-3.83-.77-1.16-1.92-1.61-3.21-1-.42.2-2.42,1.93-2.57,2.27-.1.24-.11.52.05.74l5.08,5.18c.4.22,1.24-.68,1.23-1.02s-1.75-1.66-1.79-1.93c-.04-.23.29-.29.4-.42ZM102.33,42.66c.08-.1-.09-.44-.17-.56-.93-1.4-3.15.8-3.31,1.97-.24,1.79,1.11,2.86,2.83,2.61.83-.12,3.35-1.57,3.01.53-.21,1.25-2.25,1.49-2.36,1.64-.3.42.68,1.09,1.28,1,2.2-.31,3.96-4.2,1.23-5.39-1.57-.68-2.98.81-3.99.5-.57-.18-.68-.8-.38-1.3.45-.76,1.78-.94,1.85-1.02ZM97.68,45.63c-.2-.2-.56-.39-.81-.16l-2.76,2.76-.11.34c.57.67,5.06,5.6,5.45,5.56.23-.02,3.34-2.94,3.32-3.17-.02-.24-.59-.89-.92-.74l-2.16,2.01c-.14-.28-1.52-1.52-1.52-1.63,0-.13,1.6-1.45,1.75-1.75.12-.23-.63-.95-.88-.89-.33.09-1.53,1.72-1.81,1.67-.08-.01-1.12-1.04-1.2-1.17-.08-.12-.14-.12-.06-.28.39-.75,2.64-1.63,1.71-2.55ZM92.43,52.01l4.51,4.45c.32.14,1.45-.83,1.02-1.25l-4.9-5c-.76-.73-2.24.94-2.08,1.74.07.62,2.33,4.83,2.13,5.02s-4.34-2.15-5.01-2.26c-.55-.29-2.03,1.19-2.06,1.54-.02.22.63.95.82,1.17,1.06,1.21,2.41,2.38,3.55,3.54.24.25.61.93.96.96.43.04,1.21-.7,1.01-1.12l-4.11-4.28c2.01.65,3.8,1.82,5.71,2.68.51.15,1.41-.73,1.22-1.22l-2.77-5.96ZM83.05,59c-.35.31-1.37.97-1.3,1.48l3.37,7.22c.25.57,1.2-.57,1.23-.78.08-.54-.76-1.4-.66-1.77.03-.13,1.69-1.8,1.84-1.89.61-.36,1.45.64,1.92.64.2,0,1.2-.96,1.18-1.13l-7.57-3.77ZM79.67,62.26c-.4.11-2.24,2.39-2.79,2.74l-.09.43c.65.61,5.11,5.59,5.53,5.47.19-.05.99-.84.97-1.03-.07-.44-2.12-2.12-2.12-2.27,0-.13,1.81-1.63,1.78-1.89-.02-.2-.62-.87-.83-.87-.3,0-1.78,1.8-1.91,1.8-.11,0-1.43-1.45-1.4-1.61.05-.27,1.78-1.58,1.79-1.93s-.6-.92-.93-.83Z"/>
    <polygon class="st3" points="63.38 3.49 63.38 24.2 42.56 24.2 42.56 17.22 51.11 17.22 43.96 9.9 48.56 5.41 55.62 12.38 55.62 3.49 63.38 3.49"/>
    <g>
      <path class="st6" d="M92.43,52.01l2.77,5.96c.19.49-.71,1.37-1.22,1.22-1.92-.86-3.71-2.03-5.71-2.68l4.11,4.28c.19.43-.58,1.17-1.01,1.12-.35-.04-.72-.72-.96-.96-1.14-1.17-2.49-2.33-3.55-3.54-.19-.22-.84-.95-.82-1.17.03-.35,1.51-1.83,2.06-1.54.67.11,4.81,2.44,5.01,2.26s-2.06-4.4-2.13-5.02c-.17-.79,1.32-2.46,2.08-1.74l4.9,5c.43.41-.7,1.39-1.02,1.25l-4.51-4.45Z"/>
      <path class="st1" d="M83.05,59l7.57,3.77c.03.17-.97,1.13-1.18,1.13-.47,0-1.31-1-1.92-.64-.14.08-1.8,1.76-1.84,1.89-.1.37.74,1.24.66,1.77-.03.21-.98,1.35-1.23.78l-3.37-7.22c-.07-.5.95-1.17,1.3-1.48ZM84.89,63.94c.11.08.21-.06.28-.11.17-.12,1.43-1.31,1.41-1.41-.04-.18-2.74-1.37-3.1-1.63.27.38,1.27,3.05,1.41,3.15Z"/>
      <path class="st6" d="M107.81,42.29c-.12.13-.44.19-.4.42.04.26,1.78,1.58,1.79,1.93s-.83,1.24-1.23,1.02l-5.08-5.18c-.16-.21-.15-.5-.05-.74.15-.35,2.15-2.08,2.57-2.27,1.29-.61,2.44-.17,3.21,1,.98,1.49.22,2.69-.81,3.83ZM105.68,38.86c-.37.1-.8.68-1.09.93.48.28,1.47,1.91,1.94,1.84.26-.04.8-.68.9-.91.42-1.02-.65-2.14-1.74-1.86Z"/>
      <path class="st6" d="M97.68,45.63c.92.92-1.32,1.8-1.71,2.55-.08.16-.03.17.06.28.09.13,1.12,1.16,1.2,1.17.28.05,1.48-1.58,1.81-1.67.25-.07,1.01.65.88.89-.15.29-1.75,1.61-1.75,1.75,0,.11,1.38,1.35,1.52,1.63l2.16-2.01c.32-.16.89.49.92.74.02.23-3.09,3.15-3.32,3.17-.39.03-4.88-4.9-5.45-5.56l.11-.34,2.76-2.76c.25-.23.61-.04.81.16Z"/>
      <path class="st6" d="M102.33,42.66c-.07.08-1.4.26-1.85,1.02-.29.49-.19,1.12.38,1.3,1.01.31,2.42-1.19,3.99-.5,2.72,1.19.96,5.08-1.23,5.39-.6.08-1.58-.59-1.28-1,.1-.15,2.15-.39,2.36-1.64.35-2.1-2.18-.65-3.01-.53-1.72.25-3.08-.81-2.83-2.61.16-1.17,2.37-3.37,3.31-1.97.08.12.26.46.17.56Z"/>
      <path class="st6" d="M79.67,62.26c.34-.09.94.49.93.83s-1.75,1.66-1.79,1.93c-.03.16,1.29,1.61,1.4,1.61.13,0,1.62-1.8,1.91-1.8.21,0,.81.67.83.87.02.27-1.78,1.76-1.78,1.89,0,.16,2.06,1.83,2.12,2.27.03.19-.77.98-.97,1.03-.42.12-4.88-4.86-5.53-5.47l.09-.43c.55-.35,2.38-2.63,2.79-2.74Z"/>
    </g>
    <path class="st4" d="M84.89,63.94c-.14-.1-1.14-2.77-1.41-3.15.36.27,3.06,1.45,3.1,1.63.02.1-1.23,1.29-1.41,1.41-.07.05-.17.19-.28.11Z"/>
    <path class="st2" d="M105.68,38.86c1.09-.28,2.16.83,1.74,1.86-.09.23-.64.88-.9.91-.47.07-1.47-1.56-1.94-1.84.29-.25.72-.83,1.09-.93Z"/>
  </g>
</svg>