<?xml version="1.0" encoding="UTF-8"?>
<svg id="Camada_1" xmlns="http://www.w3.org/2000/svg" version="1.1" xmlns:xlink="http://www.w3.org/1999/xlink" viewBox="0 0 157.28 78.22">
  <!-- Generator: Adobe Illustrator 29.6.1, SVG Export Plug-In . SVG Version: 2.1.1 Build 9)  -->
  <defs>
    <style>
      .st0 {
        fill: none;
      }

      .st1 {
        fill: url(#Gradiente_sem_nome_7);
      }

      .st2 {
        clip-path: url(#clippath);
      }

      .st3 {
        fill: #2e2e2e;
      }
    </style>
    <clipPath id="clippath">
      <rect class="st0" x="1.41" y="22.4" width="154.46" height="33.42"/>
    </clipPath>
    <linearGradient id="Gradiente_sem_nome_7" data-name="Gradiente sem nome 7" x1="1.45" y1="1882.49" x2="62.6" y2="1882.49" gradientTransform="translate(0 1922) scale(1 -1)" gradientUnits="userSpaceOnUse">
      <stop offset="0" stop-color="#00adee"/>
      <stop offset="1" stop-color="#ffca05"/>
    </linearGradient>
  </defs>
  <rect class="st0" width="157.28" height="78.22"/>
  <g class="st2">
    <g>
      <path class="st3" d="M66.47,43.25c1.37,1.39,3.29,2.36,5.41,2.36,2.56-.03,4.37-.94,4.37-2.61,0-3.89-11.79-.14-11.79-7.24,0-3.11,3.41-5.24,7.57-5.24,3.03,0,5.47.92,7.28,2.66l-2.5,2.14c-1.66-1.55-3.17-2.08-4.95-2.08-2.79,0-3.84,1.3-3.84,2.36,0,3.91,11.79,0,11.79,7.24,0,3.64-3.87,5.83-8.06,5.83-2.56,0-5.53-.92-7.83-3.22"/>
      <path class="st3" d="M86.97,39.75v-5.83h5.07c2.39,0,3.47,1.36,3.47,2.91s-1.08,2.91-3.47,2.91h-2.94v3.05h3.2c4.08,0,6.58-2.55,6.58-5.97s-2.5-5.97-6.58-5.97h-8.7v17.43h3.38v-5.49"/>
      <path class="st3" d="M101.44,30.51l8.12,7.83,8.12-7.83v17.79h-3.38v-10.77l-4.75,4.69-4.75-4.69v10.77h-3.38"/>
      <path class="st3" d="M131.38,42.14l-2.65-6.24-2.68,6.24h5.33ZM127.79,30.87h2.07l7.75,17.43h-3.64l-1.4-3.28h-7.74l-1.4,3.28h-3.61l7.97-17.43Z"/>
      <path class="st3" d="M143.6,39.75v-5.83h5.07c2.39,0,3.46,1.36,3.46,2.91s-1.08,2.91-3.46,2.91h-3v3.05h2.06l3.82,5.49h4.25l-4.57-6.22c2.45-.72,4.28-2.72,4.28-5.24,0-3.41-2.5-5.97-6.58-5.97h-8.71v17.43h3.38v-5.49"/>
      <path class="st3" d="M65.5,53.64c.35.02.62-.09.62-.48s-.29-.45-.62-.44M64.69,52.04h.92c.76,0,1.32.27,1.32,1.01,0,.34-.19.7-.53.83l.88,1.24-.82.26-.95-1.54h0v1.43l-.81.08v-3.29h0Z"/>
      <path class="st3" d="M69.97,53.67c0,.5.42.96.93.96s.93-.47.93-.96-.42-.96-.93-.96-.93.47-.93.96ZM72.64,53.67c0,.95-.79,1.7-1.74,1.7s-1.74-.76-1.74-1.7.79-1.7,1.74-1.7,1.74.75,1.74,1.7Z"/>
      <path class="st3" d="M75.7,54.61h.25c.52,0,.93-.44.93-.94s-.41-.94-.93-.94h-.25M74.89,52.04h1.13c.93,0,1.67.71,1.67,1.63s-.74,1.63-1.67,1.63h-1.13v-3.26Z"/>
      <path class="st3" d="M80.62,53.67c0,.5.42.96.93.96s.93-.47.93-.96-.42-.96-.93-.96-.93.47-.93.96ZM83.29,53.67c0,.95-.79,1.7-1.74,1.7s-1.74-.76-1.74-1.7.79-1.7,1.74-1.7,1.74.75,1.74,1.7Z"/>
      <path class="st3" d="M86.43,54.07h.86l-.43-.8-.43.8ZM86.87,51.97l1.76,3.24-.82.17-.33-.7h-1.24l-.33.7-.78-.17,1.74-3.24h0Z"/>
      <path class="st3" d="M93.53,55.37l-2.13-1.86v1.75l-.81.08v-3.37h0l2.13,1.82v-1.75l.81-.08v3.41"/>
      <path class="st3" d="M95.93,55.3v-3.26h1.84l.14.69h-1.18v.56h.84v.69h-.84v.63h1.28l-.2.69"/>
      <path class="st3" d="M100.2,55.3v-3.26l.81-.08v2.59h1.07l-.21.74"/>
      <path class="st3" d="M110.79,52.9c-.19-.16-.33-.25-.58-.25-.14,0-.36.09-.36.26,0,.52,1.46.18,1.46,1.38,0,.73-.57,1.09-1.25,1.09-.4,0-.82-.12-1.13-.38l.48-.62c.15.18.37.26.61.26.17,0,.43-.08.43-.29,0-.51-1.46-.2-1.46-1.37,0-.64.6-1.01,1.19-1.01.38,0,.76.14,1.04.37"/>
      <path class="st3" d="M116.28,54.17c0,.76-.59,1.21-1.41,1.21-.76,0-1.29-.35-1.29-1.15v-2.18l.81-.08v2.03c0,.35.1.64.5.64.52,0,.58-.37.58-.81v-1.78l.81-.08"/>
      <path class="st3" d="M118.66,55.3v-3.26l.81-.08v2.59h1.07l-.21.74"/>
      <path class="st3" d="M127.52,55.3v-3.26h1.84l.14.69h-1.18v.56h.84v.69h-.84v.63h1.28l-.2.69"/>
      <path class="st3" d="M136.65,55.3v-3.26l.81-.08v2.59h1.07l-.21.74"/>
      <path class="st3" d="M140.66,55.3v-3.26h1.84l.14.69h-1.18v.56h.84v.69h-.84v.63h1.28l-.2.69"/>
      <path class="st3" d="M146.66,52.9c-.19-.16-.33-.25-.58-.25-.14,0-.36.09-.36.26,0,.52,1.46.18,1.46,1.38,0,.73-.57,1.09-1.25,1.09-.4,0-.82-.12-1.13-.38l.48-.62c.15.18.37.26.61.26.16,0,.43-.08.43-.29,0-.51-1.46-.2-1.46-1.37,0-.64.6-1.01,1.19-1.01.37,0,.76.14,1.04.37"/>
      <path class="st3" d="M149.16,52.78l.21-.74h2.22v.74h-.78v2.48l-.81.08v-2.55"/>
      <path class="st3" d="M153.73,55.3v-3.26h1.84l.14.69h-1.18v.56h.84v.69h-.84v.63h1.28l-.2.69"/>
      <path class="st3" d="M67.51,23.79c-.17-.12-.34-.16-.55-.16-.66,0-1.19.61-1.19,1.26s.48,1.3,1.17,1.3c.22,0,.45-.08.64-.2l-.08.51c-.18.06-.37.12-.56.12-.92,0-1.62-.8-1.62-1.7,0-.83.73-1.7,1.55-1.7.19,0,.37.03.55.08"/>
      <path class="st3" d="M73.64,26.19c.68,0,1.24-.6,1.24-1.28s-.56-1.28-1.24-1.28-1.24.6-1.24,1.28c0,.68.56,1.28,1.24,1.28ZM73.64,23.21c.94,0,1.71.74,1.71,1.7s-.77,1.7-1.71,1.7-1.71-.75-1.71-1.7.77-1.7,1.71-1.7Z"/>
      <path class="st3" d="M79.78,26.6v-3.39h.01l2.09,2.28v-2.13l.47-.08v3.33h0l-2.09-2.28v2.2"/>
      <path class="st3" d="M88.96,23.79c-.17-.12-.34-.16-.55-.16-.67,0-1.19.61-1.19,1.26s.48,1.3,1.17,1.3c.22,0,.45-.08.64-.2l-.08.51c-.18.06-.37.12-.56.12-.92,0-1.62-.8-1.62-1.7,0-.83.73-1.7,1.55-1.7.19,0,.37.03.55.08"/>
      <path class="st3" d="M93.57,26.54v-3.26h1.74l.1.43h-1.37v.92h1.1v.43h-1.1v1.05h1.48l-.13.43"/>
      <path class="st3" d="M100.12,25.81c.13.21.36.38.62.38.34,0,.59-.17.59-.57,0-.75-1.49-.34-1.49-1.49,0-.58.41-.93,1-.93.36,0,.7.19.92.48l-.31.31c-.18-.19-.36-.36-.63-.36-.3,0-.51.19-.51.5,0,.67,1.49.37,1.49,1.49,0,.58-.45.99-1.01.99-.45,0-.72-.21-1.01-.53"/>
      <path class="st3" d="M106.48,25.81c.13.21.36.38.62.38.34,0,.59-.17.59-.57,0-.75-1.49-.34-1.49-1.49,0-.58.41-.93,1-.93.36,0,.7.19.92.48l-.31.31c-.18-.19-.36-.36-.63-.36-.3,0-.51.19-.51.5,0,.67,1.49.37,1.49,1.49,0,.58-.45.99-1.01.99-.45,0-.72-.21-1.01-.53"/>
      <path class="st3" d="M112.63,26.58v-3.3l.47-.08v3.33l-.47.04Z"/>
      <path class="st3" d="M119.22,26.19c.68,0,1.24-.6,1.24-1.28s-.56-1.28-1.24-1.28-1.24.6-1.24,1.28.56,1.28,1.24,1.28ZM119.22,23.21c.94,0,1.71.74,1.71,1.7s-.77,1.7-1.71,1.7-1.71-.75-1.71-1.7.77-1.7,1.71-1.7Z"/>
      <path class="st3" d="M125.35,26.6v-3.39h0l2.09,2.28v-2.13l.46-.08v3.33h0l-2.09-2.28v2.2"/>
      <path class="st3" d="M133.85,22.41h.65l-.68.68h-.39M134.23,25.07l-.46-.93-.46.93h.92ZM132.13,26.52l1.65-3.31h0l1.66,3.31-.47.1-.56-1.12h-1.31l-.55,1.12-.44-.1Z"/>
      <path class="st3" d="M140.09,24.86h.33c.32,0,.61-.23.61-.58,0-.38-.25-.56-.61-.56h-.33M139.63,26.6v-3.31h.8c.48,0,1.07.25,1.07.99,0,.48-.27.75-.72.85l.98,1.36-.52.13-1.13-1.66h0v1.58l-.46.06Z"/>
      <path class="st3" d="M146.01,26.58v-3.3l.47-.08v3.33l-.47.04Z"/>
      <path class="st3" d="M152.79,25.07l-.46-.93-.46.93h.92ZM150.68,26.52l1.65-3.31h0l1.66,3.31-.47.1-.56-1.12h-1.31l-.55,1.12-.44-.1Z"/>
      <path class="st1" d="M32.13,55.84v-.08h-1.35v-.08h-.87v-.08h-.79v-.08h-.56v-.08h-.64v-.08h-.56v-.08h-.48v-.08h-.48v-.08h-.48v-.08h-.48v-.08h-.4v-.08h-.4v-.08h-.4v-.08h-.32v-.08h-.4v-.08h-.32v-.08h-.4v-.08h-.32v-.08h-.32v-.08h-.32v-.08h-.32v-.08h-.32v-.08h-.32v-.08h-.24v-.08h-.32v-.08h-.24v-.08h-.32v-.08h-.24v-.08h-.32v-.08h-.24v-.08h-.32v-.08h-.24v-.08h-.24v-.08h-.24v-.08h-.24v-.08h-.32v-.08h-.24v-.08h-.24v-.08h-.24v-.08h-.24v-.08h-.24v-.08h-.24v-.08h-.24v-.08h-.16v-.08h-.24v-.08h-.24v-.08h-.24v-.08h-.16v-.08h-.24v-.08h-.24v-.08h-.24v-.08h-.16v-.08h-.24v-.08h-.16v-.08h-.24v-.08h-.24v-.08h-.16v-.08h-.24v-.08h-.16v-.08h-.24v-.08h-.16v-.08h-.24v-.08h-.16v-.08h-.24v-.08h-.16v-.08h-.16v-.08h-.24v-.08h-.16v-.08h-.24v-.08h-.16v-.08h-.16v-.08h-.24v-.08h-.16v-.08h-.16v-.08h-.16v-.08h-.24v-.08h-.16v-.08h-.16v-.08h-.16v-.08h-.16v-.08h-.24v-.08h-.16v-.08h-.16v-.08h-.16v-.08h-.16v-.08h-.16v-.08h-.24v-.08h-.16v-.08h-.16v-.08h-.16v-.08h-.16v-.08h-.16v-.08h-.16v-.08h-.16v-.08h-.16v-.08h-.16v-.08h-.16v-.08h-.16v-.08h-.16v-.08h-.16v-.08h-.16v-.08h-.16v-.08h-.16v-.08h-.16v-.08h-.16v-.08h-.08v-.08h-.16v-.08h-.16v-.08h-.16v-.08h-.16v-.08h-.16v-.08h-.16v-.08h-.08v-.08h-.16v-.08h-.16v-.08h-.16v-.08h-.08v-.08h-.16v-.08h-.16v-.08h-.16v-.08h-.08v-.08h-.16v-.08h-.16v-.08h-.08v-.08h-.16v-.08h-.16v-.16h.08v-.08h.24v-.08h.24v-.08h.16v-.08h.24v-.08h.16v-.08h.24v-.08h.16v-.08h.24v-.08h.24v-.08h.16v-.08h.24v-.08h.16v-.08h.16v-.08h.24v-.08h.16v-.08h.24v-.08h.16v-.08h.16v-.08h.24v-.08h.16v-.08h.16v-.08h.24v-.08h.16v-.08h.16v-.08h.16v-.08h.24v-.08h.16v-.08h.16v-.08h.16v-.08h.16v-.08h.16v-.08h.16v-.08h.16v-.08h.16v-.08h.16v-.08h.16v-.08h.16v-.08h.16v-.08h.16v-.08h.16v-.08h.16v-.08h.16v-.08h.16v.08h.16v.08h.16v.08h.16v.08h.16v.08h.16v.08h.16v.08h.16v.08h.16v.08h.16v.08h.16v.08h.08v.08h.16v.08h.16v.08h.16v.08h.16v.08h.16v.08h.16v.08h.16v.08h.16v.08h.16v.08h.16v.08h.08v.08h.16v.08h.16v.08h.16v.08h.16v.08h.16v.08h.16v.08h.16v.08h.16v.08h.16v.08h.16v.08h.08v.08h.16v.08h.16v.08h.16v.08h.16v.08h.16v.08h.16v.08h.16v.08h.16v.08h.16v.08h.16v.08h.16v.08h.16v.08h.16v.08h.08v.08h.16v.08h.16v.08h.16v.08h.16v.08h.16v.08h.16v.08h.16v.08h.16v.08h.16v.08h.16v.08h.16v.08h.16v.08h.16v.08h.16v.08h.16v.08h.16v.08h.16v.08h.24v.08h.16v.08h.16v.08h.16v.08h.16v.08h.16v.08h.16v.08h.16v.08h.16v.08h.24v.08h.16v.08h.16v.08h.16v.08h.16v.08h.24v.08h.16v.08h.16v.08h.16v.08h.24v.08h.16v.08h.16v.08h.24v.08h.16v.08h.24v.08h.16v.08h.16v.08h.24v.08h.16v.08h.24v.08h.24v.08h.16v.08h.24v.08h.24v.08h.16v.08h.24v.08h.24v.08h.16v.08h.24v.08h.24v.08h.32v.08h.24v.08h.24v.08h.24v.08h.24v.08h.24v.08h.32v.08h.32v.08h.32v.08h.32v.08h.32v.08h.32v.08h.32v.08h.4v.08h.4v.08h.48v.08h.4v.08h.48v.08h.79v.08h.79v.08h3.34v-.08h1.03v-.08h.56v-.08h.48v-.08h.4v-.08h.48v-.08h.48v-.08h.24v-.08h.32v-.08h.32v-.08h.32v-.08h.32v-.08h.24v-.08h.24v-.08h.24v-.08h.24v-.08h.16v-.08h.24v-.08h.24v-.08h.16v-.08h.24v-.08h.16v-.08h.16v-.08h.16v-.08h.16v-.08h.24v-.08h.16v-.08h.16v-.08h.16v-.08h.08v-.08h.16v-.08h.16v-.08h.16v-.08h.16v-.08h.08v-.08h.16v-.08h.16v-.08h.08v-.08h.16v-.08h.08v-.08h.16v-.08h.08v-.08h.16v-.08h.08v-.08h.16v-.08h.08v-.08h.16v-.08h.08v-.08h.08v-.08h.16v-.08h.08v-.08h.08v-.08h.08v-.08h.16v-.08h.08v-.08h.08v-.08h.08v-.08h.08v-.08h.16v-.08h.08v-.08h.08v-.08h.08v-.08h.08v-.08h.08v-.08h.08v-.08h.08v-.08h.08v-.08h.08v-.08h.08v-.08h.08v-.08h.08v-.08h.08v-.08h.08v-.08h.08v-.08h.08v-.08h.08v-.08h.08v-.08h.08v-.08h.08v-.08h.08v-.16h.08v-.08h.08v-.08h.08v-.08h.08v-.08h.08v-.08h.08v-.16h.08v-.08h.08v-.08h.08v-.16h.08v-.08h.08v-.08h.08v-.16h.08v-.08h.08v-.08h.08v-.16h.08v-.08h.08v-.16h.08v-.08h.08v-.16h.08v-.08h.08v-.16h.08v-.16h.08v-.08h.08v-.16h.08v-.16h.08v-.08h.08v-.16h.08v-.16h.08v-.16h.08v-.16h.08v-.16h.08v-.16h.08v-.16h.08v-.16h.08v-.16h.08v-.16h.08v-.24h.08v-.16h.08v-.16h.08v-.24h.08v-.16h.08v-.24h.08v-.16h.08v-.24h.08v-.24h.08v-.24h.08v-.24h.08v-.24h.08v-.32h.08v-.24h.08v-.32h.08v-.32h.08v-.32h.08v-.32h.08v-.4h.08v-.4h.08v-.48h.08v-.48h.08v-.48h.08v-.72h.08v-.79h.08v-1.11h.08v-3.5h-.08v-1.35h-.08v-.79h-.08v-.79h-.08v-.71h-.08v-.64h-.08v-.56h-.08v-.48h.95v.08h3.1v-.08h1.91v1.35h.08v3.73h-.08v1.75h-.08v.72h-.08v.64h-.08v.64h-.08v.64h-.08v.48h-.08v.4h-.08v.4h-.08v.4h-.08v.32h-.08v.4h-.08v.4h-.08v.32h-.08v.24h-.08v.24h-.08v.32h-.08v.24h-.08v.24h-.08v.32h-.08v.24h-.08v.24h-.08v.32h-.08v.16h-.08v.24h-.08v.16h-.08v.24h-.08v.16h-.08v.24h-.08v.16h-.08v.24h-.08v.16h-.08v.24h-.08v.16h-.08v.16h-.08v.16h-.08v.16h-.08v.16h-.08v.16h-.08v.16h-.08v.16h-.08v.16h-.08v.16h-.08v.16h-.08v.16h-.08v.16h-.08v.16h-.08v.16h-.08v.08h-.08v.16h-.08v.16h-.08v.08h-.08v.16h-.08v.16h-.08v.08h-.08v.16h-.08v.16h-.08v.08h-.08v.16h-.08v.08h-.08v.16h-.08v.08h-.08v.16h-.08v.08h-.08v.16h-.08v.08h-.08v.08h-.08v.16h-.08v.08h-.08v.16h-.08v.08h-.08v.08h-.08v.16h-.08v.08h-.08v.08h-.08v.16h-.08v.08h-.08v.08h-.08v.08h-.08v.16h-.08v.08h-.08v.08h-.08v.08h-.08v.08h-.08v.08h-.08v.16h-.08v.08h-.08v.08h-.08v.08h-.08v.08h-.08v.16h-.08v.08h-.08v.08h-.08v.08h-.08v.08h-.08v.08h-.08v.08h-.08v.08h-.08v.08h-.08v.08h-.08v.08h-.08v.08h-.08v.08h-.08v.08h-.08v.08h-.08v.08h-.08v.08h-.08v.08h-.08v.08h-.08v.08h-.08v.08h-.08v.08h-.08v.08h-.16v.08h-.08v.08h-.08v.08h-.08v.08h-.08v.08h-.08v.08h-.08v.08h-.08v.08h-.08v.08h-.16v.08h-.08v.08h-.08v.08h-.08v.08h-.16v.08h-.08v.08h-.08v.08h-.08v.08h-.08v.08h-.16v.08h-.08v.08h-.08v.08h-.16v.08h-.08v.08h-.08v.08h-.16v.08h-.08v.08h-.08v.08h-.16v.08h-.08v.08h-.16v.08h-.08v.08h-.16v.08h-.08v.08h-.08v.08h-.16v.08h-.08v.08h-.16v.08h-.08v.08h-.16v.08h-.08v.08h-.16v.08h-.16v.08h-.08v.08h-.16v.08h-.08v.08h-.16v.08h-.16v.08h-.16v.08h-.16v.08h-.16v.08h-.16v.08h-.08v.08h-.16v.08h-.16v.08h-.16v.08h-.24v.08h-.16v.08h-.16v.08h-.16v.08h-.24v.08h-.16v.08h-.16v.08h-.16v.08h-.24v.08h-.24v.08h-.24v.08h-.24v.08h-.16v.08h-.24v.08h-.24v.08h-.24v.08h-.32v.08h-.24v.08h-.32v.08h-.24v.08h-.32v.08h-.4v.08h-.32v.08h-.4v.08h-.4v.08h-.48v.08h-.48v.08h-.56v.08h-.64v.08h-.87v.08h-1.19v.08"/>
    </g>
  </g>
</svg>