<?xml version="1.0" encoding="UTF-8"?>
<svg id="Camada_1" xmlns="http://www.w3.org/2000/svg" version="1.1" viewBox="0 0 157.28 78.22">
  <!-- Generator: Adobe Illustrator 29.6.1, SVG Export Plug-In . SVG Version: 2.1.1 Build 9)  -->
  <defs>
    <style>
      .st0 {
        fill: #6834a1;
      }

      .st1 {
        fill-rule: evenodd;
      }

      .st1, .st2 {
        fill: gray;
      }

      .st3 {
        fill: none;
      }
    </style>
  </defs>
  <rect class="st3" width="157.28" height="78.22"/>
  <g>
    <g>
      <path class="st0" d="M56.28,18.59h-8.81v28.6h8.81v-28.6Z"/>
      <path class="st0" d="M93,8.21l-7.04,7.96h8.55l3.26-3.71,3.31,3.71h8.55l-7.09-7.96h-9.54Z"/>
      <path class="st0" d="M94.55,39.83v-3.57h13.5v-6.81h-13.5v-3.57h15.08v-7.33h-22.75s.08.09.12.13c2.16,2.53,3.4,5.92,3.4,9.3,0,5.86-2.57,9.25-4.72,11.07-2.74,2.32-6.52,3.54-10.94,3.54h-.76v4.55h35.66v-7.33h-15.08Z"/>
      <path class="st0" d="M85.96,28c0-.65-.07-1.35-.22-2.05-.78-3.71-3.74-7.72-10.27-7.72h-14.74v28.94h8.81v-8.99h5.2c5.74,0,10.01-2.47,11-7.72.15-.76.22-1.58.22-2.46M72.94,31.36h-3.4v-5.81h3.93c2.16,0,4.17.16,4.17,2.76,0,2.88-2.4,3.04-4.69,3.04h0Z"/>
    </g>
    <g>
      <path class="st2" d="M106.89,62.29l-.8.99h.97l.37-.51.38.51h.97l-.81-.99h-1.09Z"/>
      <path class="st2" d="M47.47,52.33h1.86l2.08,5.91h.02l2.03-5.91h1.84v7.55h-1.25v-5.83h-.02l-2.1,5.83h-1.09l-2.1-5.83h-.02v5.83h-1.26v-7.55Z"/>
      <path class="st2" d="M58.21,52.33h-1.32v7.55h1.32v-7.55Z"/>
      <path class="st2" d="M59.78,52.33h1.39l3.45,5.56h.02v-5.56h1.26v7.55h-1.4l-3.43-5.55h-.03v5.55h-1.26v-7.55Z"/>
      <path class="st2" d="M67.46,52.33h5.44v1.14h-4.12v1.98h3.81v1.08h-3.81v2.21h4.19v1.14h-5.51v-7.55Z"/>
      <path class="st2" d="M74.08,52.33h3.6c.83,0,1.45.18,1.87.54.42.36.62.86.62,1.5,0,.36-.05.66-.16.89-.1.24-.23.43-.37.57-.14.15-.28.25-.42.31-.13.06-.24.1-.3.13v.02c.12.01.23.05.37.1.13.05.25.15.37.27.11.12.21.28.28.48.07.2.11.45.11.74,0,.45.03.85.1,1.21.07.36.17.62.31.78h-1.42c-.1-.16-.16-.34-.18-.54-.02-.2-.02-.39-.02-.57,0-.35-.02-.64-.06-.89-.04-.25-.12-.46-.23-.62-.11-.16-.26-.29-.46-.37-.2-.08-.44-.12-.75-.12h-1.94v3.11h-1.32v-7.55h-.01ZM75.4,55.76h2.17c.42,0,.75-.1.97-.3.22-.2.33-.5.33-.9,0-.24-.04-.43-.1-.59-.07-.15-.16-.27-.29-.35-.12-.09-.26-.14-.42-.17-.16-.02-.32-.04-.49-.04h-2.14v2.36h-.01Z"/>
      <path class="st2" d="M83.74,52.33h1.4l2.91,7.55h-1.42l-.71-2h-3.01l-.71,2h-1.36l2.9-7.55ZM83.28,56.87h2.3l-1.13-3.24h-.03l-1.14,3.24Z"/>
      <path class="st2" d="M94.94,57c-.03.45-.12.86-.29,1.23-.16.37-.38.7-.65.96-.27.27-.6.48-.97.62-.37.15-.78.23-1.23.23l-.34.45v.02s.09-.02.15-.03h.2c.1,0,.21.02.32.05.1.03.2.08.29.14.09.06.15.15.21.24.05.1.09.21.09.35,0,.18-.04.34-.12.45-.08.12-.18.21-.3.29-.12.07-.26.13-.41.16s-.31.05-.46.05-.35-.02-.56-.05c-.21-.04-.39-.09-.53-.17l.19-.42c.12.04.23.07.34.11.11.04.23.05.35.05.07,0,.15,0,.22-.02.08-.01.15-.03.21-.06.07-.03.12-.07.15-.13.04-.05.06-.13.06-.22,0-.13-.05-.23-.15-.3-.1-.07-.21-.1-.33-.1-.15,0-.29.04-.41.1l-.23-.2.58-.77c-.5-.05-.95-.19-1.35-.42-.4-.23-.73-.51-1.01-.87-.27-.35-.48-.76-.63-1.21-.15-.45-.22-.93-.22-1.44s.09-1.04.25-1.52c.16-.48.4-.9.71-1.26.31-.36.69-.65,1.14-.86.45-.21.95-.32,1.51-.32.42,0,.82.06,1.2.17.37.12.7.29.99.51.29.22.52.49.69.81.18.32.29.68.33,1.09h-1.32c-.05-.22-.13-.42-.23-.6-.1-.18-.23-.34-.38-.48s-.34-.24-.54-.31c-.21-.07-.45-.11-.73-.11-.4,0-.75.08-1.04.24-.29.16-.53.38-.71.65-.18.27-.32.58-.4.93-.09.35-.13.7-.13,1.06s.04.71.13,1.06c.09.34.22.65.4.92.18.27.42.49.71.65.29.16.64.24,1.04.24.3,0,.56-.05.78-.15.23-.1.42-.24.58-.42.16-.18.29-.39.38-.63.09-.24.15-.49.18-.77h1.3Z"/>
      <path class="st2" d="M98.15,52.33h1.4l2.91,7.55h-1.42l-.71-2h-3.01l-.71,2h-1.36l2.9-7.55ZM100.74,50.21c-.03.17-.07.33-.12.48-.05.15-.13.27-.23.38-.09.11-.21.2-.34.26-.13.06-.3.1-.49.1-.12,0-.24-.02-.38-.06-.13-.04-.27-.09-.4-.14-.16-.07-.29-.12-.39-.15-.1-.03-.21-.04-.33-.04-.13,0-.23.04-.3.11s-.13.18-.15.32h-.6c.02-.13.06-.27.12-.42.05-.14.13-.27.22-.38.09-.12.2-.21.33-.29.13-.07.27-.11.43-.11.13,0,.26.01.37.04.11.02.27.08.49.17.15.07.27.11.37.14.1.03.19.05.29.05.15,0,.27-.04.35-.13.08-.09.14-.2.17-.34h.59ZM97.69,56.87h2.3l-1.13-3.24h-.03l-1.14,3.24Z"/>
      <path class="st2" d="M106.19,52.15c.56,0,1.07.1,1.51.32.45.21.82.49,1.14.86.31.36.55.78.71,1.26.16.48.25.98.25,1.52s-.09,1.06-.25,1.53c-.16.48-.4.9-.71,1.26-.31.36-.69.64-1.14.85-.45.21-.95.31-1.51.31s-1.07-.1-1.51-.31c-.45-.21-.82-.49-1.14-.85-.31-.36-.55-.78-.71-1.26-.16-.48-.25-.99-.25-1.53s.08-1.04.25-1.52c.16-.48.4-.9.71-1.26.31-.36.69-.65,1.14-.86.45-.21.95-.32,1.51-.32ZM106.19,53.22c-.4,0-.75.08-1.04.24-.29.16-.53.38-.71.65-.18.27-.32.58-.41.92-.09.35-.13.7-.13,1.06s.04.71.13,1.06c.09.35.23.65.41.92.18.27.42.49.71.65.29.16.64.24,1.04.24s.75-.08,1.04-.24c.29-.16.53-.38.71-.65.18-.27.32-.58.4-.92.09-.35.13-.7.13-1.06s-.04-.71-.13-1.06c-.09-.35-.23-.65-.4-.92-.18-.27-.42-.49-.71-.65-.29-.16-.64-.24-1.04-.24Z"/>
      <path class="st2" d="M47.47,63.8h1.5l1.67,4.75h.02l1.62-4.75h1.48v6.06h-1.01v-4.68h-.02l-1.68,4.68h-.87l-1.69-4.68h-.01v4.68h-1.01v-6.06Z"/>
      <path class="st2" d="M61.49,63.8h2.9c.67,0,1.17.15,1.5.43.34.29.5.69.5,1.2,0,.29-.04.53-.13.71-.09.19-.18.34-.3.46-.12.12-.23.2-.34.25-.11.05-.19.09-.24.1v.02c.09.01.19.04.29.09s.2.12.29.21c.09.1.16.23.23.38.06.16.09.35.09.59,0,.35.02.68.08.97.05.29.14.5.25.62h-1.14c-.08-.13-.13-.27-.14-.43-.01-.16-.02-.31-.02-.46,0-.27-.02-.52-.05-.71-.04-.2-.1-.37-.19-.5-.09-.13-.21-.23-.37-.29-.15-.06-.35-.09-.6-.09h-1.56v2.5h-1.06v-6.06ZM62.55,66.56h1.74c.34,0,.6-.08.77-.24.18-.16.26-.4.26-.73,0-.19-.03-.35-.09-.47-.05-.12-.13-.22-.23-.29-.1-.07-.21-.11-.34-.13-.13-.02-.26-.04-.4-.04h-1.72v1.89h0Z"/>
      <path class="st2" d="M67.46,63.8h2.9c.67,0,1.17.15,1.5.43.34.29.5.69.5,1.2,0,.29-.04.53-.13.71-.09.19-.18.34-.29.46-.12.12-.23.2-.34.25-.11.05-.19.09-.24.1v.02c.09.01.19.04.29.09.1.04.2.12.29.21.09.1.16.23.23.38.06.16.09.35.09.59,0,.35.02.68.08.97.05.29.14.5.25.62h-1.14c-.08-.13-.13-.27-.14-.43-.01-.16-.02-.31-.02-.46,0-.27-.02-.52-.05-.71-.04-.2-.1-.37-.19-.5-.09-.13-.21-.23-.37-.29-.15-.06-.35-.09-.6-.09h-1.56v2.5h-1.06v-6.06h0ZM68.53,66.56h1.74c.34,0,.6-.08.77-.24.18-.16.26-.4.26-.73,0-.19-.03-.35-.09-.47-.05-.12-.13-.22-.23-.29-.1-.07-.21-.11-.34-.13-.13-.02-.26-.04-.4-.04h-1.72v1.89h0Z"/>
      <path class="st2" d="M82.26,63.8h2.51c.46,0,.87.08,1.2.24.34.16.62.37.83.65.21.27.37.59.48.97.1.37.16.76.16,1.18s-.05.81-.16,1.18c-.1.37-.26.69-.48.97-.21.27-.49.49-.83.65-.34.16-.74.24-1.2.24h-2.51v-6.06ZM83.31,69h1.04c.42,0,.75-.05,1.01-.16.26-.11.47-.26.62-.46.15-.2.25-.43.31-.69.05-.26.08-.55.08-.86s-.02-.59-.08-.86c-.05-.26-.16-.49-.31-.69-.15-.2-.35-.35-.62-.46-.26-.11-.6-.16-1.01-.16h-1.04v4.33h0Z"/>
      <path class="st2" d="M98.26,63.8h-1.06v6.06h1.06v-6.06Z"/>
      <path class="st2" d="M99.56,63.8h2.68c.43,0,.78.06,1.05.19.27.12.48.28.63.46.15.19.24.39.3.61.05.22.08.42.08.61s-.02.39-.08.6c-.05.22-.15.42-.3.61-.15.18-.35.34-.63.46-.27.12-.62.18-1.05.18h-1.61v2.33h-1.06v-6.06h0ZM100.62,66.67h1.55c.12,0,.24-.02.37-.05.12-.03.24-.09.34-.16.1-.07.19-.18.26-.31.07-.13.1-.29.1-.48s-.03-.36-.09-.49c-.05-.13-.13-.23-.23-.31-.1-.08-.21-.13-.33-.16-.12-.03-.26-.04-.4-.04h-1.57v2h0Z"/>
      <path class="st2" d="M105.22,63.8h4.37v.92h-3.3v1.59h3.06v.86h-3.06v1.78h3.37v.92h-4.43v-6.06Z"/>
      <path class="st1" d="M57.62,64.52c1.02,0,1.84,1.03,1.84,2.31s-.82,2.31-1.84,2.31-1.84-1.03-1.84-2.31.82-2.31,1.84-2.31ZM57.62,63.66c1.61,0,2.9,1.42,2.9,3.18s-1.3,3.18-2.9,3.18-2.9-1.42-2.9-3.18,1.3-3.18,2.9-3.18Z"/>
      <path class="st1" d="M76.03,64.52c1.02,0,1.84,1.03,1.84,2.31s-.82,2.31-1.84,2.31-1.84-1.03-1.84-2.31.82-2.31,1.84-2.31ZM76.03,63.66c1.61,0,2.9,1.42,2.9,3.18s-1.3,3.18-2.9,3.18-2.9-1.42-2.9-3.18,1.3-3.18,2.9-3.18Z"/>
      <path class="st1" d="M90.97,64.52c1.02,0,1.84,1.03,1.84,2.31s-.82,2.31-1.84,2.31-1.84-1.03-1.84-2.31.82-2.31,1.84-2.31ZM90.97,63.66c1.61,0,2.9,1.42,2.9,3.18s-1.3,3.18-2.9,3.18-2.9-1.42-2.9-3.18,1.3-3.18,2.9-3.18Z"/>
    </g>
  </g>
</svg>