<?xml version="1.0" encoding="UTF-8"?>
<svg id="Camada_1" xmlns="http://www.w3.org/2000/svg" version="1.1" xmlns:xlink="http://www.w3.org/1999/xlink" viewBox="0 0 157.28 78.22">
  <!-- Generator: Adobe Illustrator 29.6.1, SVG Export Plug-In . SVG Version: 2.1.1 Build 9)  -->
  <defs>
    <style>
      .st0 {
        fill: #231f20;
      }

      .st0, .st1 {
        fill-rule: evenodd;
      }

      .st2 {
        fill: none;
      }

      .st1 {
        fill: #00529c;
      }

      .st3 {
        clip-path: url(#clippath);
      }
    </style>
    <clipPath id="clippath">
      <rect class="st2" x="23.17" y="13.96" width="110.94" height="50.31"/>
    </clipPath>
  </defs>
  <rect class="st2" width="157.28" height="78.22"/>
  <g id="layer1">
    <g id="g6955">
      <g class="st3">
        <g id="g6957">
          <g id="g6963">
            <path id="path6965" class="st1" d="M75.38,13.95h58.73v1.1h-58.73v-1.1ZM51.56,33.58c-1.26,0-2.28-1.03-2.28-2.29v-1.96c0-1.26,1.02-2.29,2.28-2.29h15.01c1.26,0,2.28,1.03,2.28,2.29v1.96c0,1.26-1.02,2.29-2.28,2.29h-15.01ZM38.27,46.67c-.79,0-1.57-.4-1.99-1.14l-5.08-8.79c-.06-.1-.1-.2-.11-.32-.08-.51.27-.99.77-1.07l4.01-.62c.89-.14,1.74.3,2.16,1.04l2.31,4.04c.11.19.33.32.57.32h10.52c.24,0,.45-.13.57-.32l2.31-4.04c.42-.74,1.27-1.18,2.16-1.04l4.01.62c.51.08.85.56.77,1.07-.02.12-.06.22-.11.32l-5.08,8.79c-.42.74-1.2,1.15-1.99,1.14h-15.8ZM38.19,13.96c-.79,0-1.57.4-1.99,1.14l-5.08,8.96c-.06.1-.1.21-.11.32-.08.51.27.98.77,1.07l4.01.62c.89.14,1.74-.3,2.16-1.04l2.31-4.21c.11-.19.33-.32.57-.32h10.52c.24,0,.45.13.57.32l2.31,4.21c.42.74,1.27,1.18,2.16,1.04l4.01-.62c.51-.08.85-.56.77-1.07-.02-.12-.06-.23-.11-.32l-5.08-8.96c-.42-.74-1.2-1.15-1.99-1.14h-15.8ZM25.45,33.58c-1.26,0-2.29-1.03-2.29-2.29v-1.96c0-1.26,1.02-2.29,2.29-2.29h15.01c1.26,0,2.28,1.03,2.28,2.29v1.96c0,1.26-1.02,2.29-2.28,2.29h-15.01ZM75.38,45.57h58.73v1.1h-58.73v-1.1Z"/>
          </g>
        </g>
      </g>
    </g>
    <path id="path6979" class="st0" d="M30.1,62.24c.54,0,.7-.53.7-.98s-.17-.99-.7-.99-.7.54-.7.99.16.98.7.98M30.1,59.39c1.09,0,1.86.81,1.86,1.87s-.77,1.86-1.86,1.86-1.85-.8-1.85-1.86.76-1.87,1.85-1.87M32.57,59.49h1.12v.48h.01c.21-.35.58-.58,1.01-.58s.83.14,1.02.57c.28-.37.62-.57,1.1-.57,1.12,0,1.24.85,1.24,1.52v2.11h-1.15v-2.08c0-.38-.18-.6-.48-.6-.5,0-.54.38-.54.95v1.73h-1.15v-2.01c0-.42-.12-.67-.43-.67-.41,0-.59.24-.59.96v1.72h-1.15v-3.53ZM39.96,61.22c0,.62.18,1.02.7,1.02s.69-.54.69-1.02c0-.45-.18-.95-.69-.95-.31,0-.71.22-.71.95M38.85,59.49h1.1v.41h.01c.22-.33.56-.51.97-.51,1.1,0,1.57.95,1.57,1.95,0,.92-.49,1.79-1.49,1.79-.43,0-.77-.16-1-.48h-.01v1.56h-1.15v-4.72ZM44.57,62.41c.55,0,.73-.31.71-1.04-.16.1-.46.12-.71.19-.26.06-.48.17-.48.45s.22.4.48.4M43.08,60.58c.02-.46.24-.76.55-.95.31-.18.72-.24,1.12-.24.83,0,1.64.18,1.64,1.18v1.54c0,.3,0,.63.14.9h-1.16c-.04-.11-.05-.22-.07-.33-.3.31-.74.44-1.16.44-.67,0-1.2-.34-1.2-1.07,0-1.15,1.25-1.06,2.05-1.22.2-.04.3-.11.3-.33,0-.27-.32-.37-.56-.37-.32,0-.52.14-.58.44h-1.08ZM47.15,59.49h1.12v.48h.01c.21-.36.69-.58,1.11-.58,1.17,0,1.27.86,1.27,1.37v2.27h-1.15v-1.71c0-.48.05-.97-.58-.97-.43,0-.62.37-.62.76v1.93h-1.15v-3.53ZM51.43,58.16h1.15v1.81h.01c.18-.36.65-.58,1.07-.58,1.17,0,1.27.86,1.27,1.37v2.27h-1.15v-1.71c0-.48.05-.97-.58-.97-.43,0-.62.37-.62.76v1.93h-1.15v-4.86ZM55.74,59.49h1.15v3.53h-1.15v-3.53ZM55.74,58.16h1.15v.88h-1.15v-.88ZM59.16,62.41c.55,0,.73-.31.71-1.04-.16.1-.46.12-.71.19-.26.06-.47.17-.47.45s.22.4.48.4M57.66,60.58c.02-.46.24-.76.55-.95.31-.18.72-.24,1.12-.24.83,0,1.64.18,1.64,1.18v1.54c0,.3,0,.63.14.9h-1.16c-.04-.11-.05-.22-.07-.33-.3.31-.74.44-1.16.44-.67,0-1.2-.34-1.2-1.07,0-1.15,1.25-1.06,2.05-1.22.2-.04.31-.11.31-.33,0-.27-.32-.37-.56-.37-.32,0-.52.14-.58.44h-1.08ZM65.17,61.39c.03.57.38.76.92.76.38,0,.77-.14.77-.5,0-.43-.69-.51-1.39-.71-.69-.2-1.42-.51-1.42-1.4,0-1.06,1.07-1.48,1.98-1.48.96,0,1.93.47,1.94,1.56h-1.26c.02-.44-.39-.58-.78-.58-.27,0-.61.09-.61.42,0,.37.7.44,1.41.64.7.2,1.4.52,1.4,1.4,0,1.23-1.05,1.63-2.11,1.63s-2.1-.49-2.1-1.74h1.26ZM68.71,59.49h1.15v3.53h-1.15v-3.53ZM68.71,58.16h1.15v.88h-1.15v-.88ZM71.66,61.22c0,.48.18,1.02.71,1.02.56,0,.69-.54.69-.99,0-.51-.18-.98-.69-.98-.53,0-.71.5-.71.95M74.17,63.02h-1.1v-.41h-.01c-.22.33-.56.51-.97.51-1.11,0-1.57-.95-1.57-1.95,0-.92.49-1.79,1.49-1.79.43,0,.77.16,1.01.48h.01v-1.71h1.15v4.86ZM77.37,60.89c-.02-.39-.3-.72-.69-.72-.41,0-.68.29-.75.72h1.43ZM75.94,61.54c.02.48.3.8.79.8.28,0,.55-.13.66-.39h1.08c-.21.82-.96,1.17-1.75,1.17-1.15,0-1.93-.69-1.93-1.88,0-1.08.86-1.86,1.9-1.86,1.26,0,1.89.95,1.84,2.15h-2.59ZM79.14,59.49h1.12v.62h.01c.17-.45.56-.69,1.06-.69.09,0,.18,0,.27.03v1.06c-.15-.04-.29-.07-.44-.07-.57,0-.87.39-.87.84v1.75h-1.15v-3.53ZM84.92,58.09l-1.07,1.01h-.81l.66-1.01h1.22ZM85.49,63.02h-1.12v-.48h-.01c-.22.36-.66.59-1.07.59-1.01,0-1.3-.59-1.3-1.51v-2.12h1.15v2.05c0,.47.2.63.57.63.25,0,.63-.16.63-.79v-1.89h1.15v3.53ZM86.31,59.49h1.12v.62h.01c.17-.45.56-.69,1.06-.69.09,0,.18,0,.27.03v1.06c-.15-.04-.28-.07-.44-.07-.57,0-.87.39-.87.84v1.75h-1.15v-3.53ZM90.66,60.27c-.51,0-.67.45-.67.88s.19.83.66.83.7-.38.7-.82-.18-.89-.69-.89M92.44,62.59c0,.58-.11,1.67-1.76,1.67-.82,0-1.6-.18-1.73-1.13h1.15c.03.16.09.25.2.31.1.05.24.08.42.08.55,0,.6-.39.6-.82v-.33h-.01c-.21.33-.56.52-.94.52-1.07,0-1.55-.76-1.55-1.76,0-.94.55-1.73,1.55-1.73.42,0,.74.18.94.54h.01v-.44h1.11v3.1ZM93.22,59.49h1.15v3.53h-1.15v-3.53ZM93.22,58.16h1.15v.88h-1.15v-.88ZM97.48,60.78c0-.3-.27-.51-.56-.51-.65,0-.75.55-.75,1.04,0,.46.2.92.69.92.4,0,.6-.23.66-.61h1.12c-.1.95-.83,1.49-1.77,1.49-1.06,0-1.85-.73-1.85-1.81s.71-1.93,1.85-1.93c.88,0,1.66.46,1.74,1.4h-1.12ZM100.66,62.41c.55,0,.73-.31.71-1.04-.16.1-.46.12-.71.19-.26.06-.47.17-.47.45s.22.4.48.4M99.17,60.58c.02-.46.24-.76.55-.95.31-.18.72-.24,1.12-.24.83,0,1.64.18,1.64,1.18v1.54c0,.3,0,.63.14.9h-1.16c-.04-.11-.06-.22-.07-.33-.3.31-.74.44-1.16.44-.67,0-1.2-.34-1.2-1.07,0-1.15,1.25-1.06,2.05-1.22.2-.04.31-.11.31-.33,0-.27-.32-.37-.56-.37-.32,0-.52.14-.58.44h-1.08ZM105.42,58.16h1.3l1.68,2.99h.01v-2.99h1.19v4.86h-1.3l-1.68-3.03h-.01v3.03h-1.19v-4.86ZM111.86,62.41c.55,0,.73-.31.71-1.04-.16.1-.46.12-.71.19-.26.06-.47.17-.47.45s.22.4.48.4M110.36,60.58c.02-.46.24-.76.55-.95.31-.18.72-.24,1.12-.24.83,0,1.64.18,1.64,1.18v1.54c0,.3,0,.63.14.9h-1.16c-.04-.11-.05-.22-.07-.33-.3.31-.74.44-1.16.44-.67,0-1.2-.34-1.2-1.07,0-1.15,1.25-1.06,2.05-1.22.2-.04.31-.11.31-.33,0-.27-.32-.37-.56-.37-.32,0-.52.14-.58.44h-1.08ZM116.73,60.78c0-.3-.27-.51-.56-.51-.64,0-.75.55-.75,1.04,0,.46.2.92.68.92.4,0,.6-.23.66-.61h1.12c-.1.95-.83,1.49-1.77,1.49-1.06,0-1.85-.73-1.85-1.81s.71-1.93,1.85-1.93c.88,0,1.65.46,1.74,1.4h-1.12ZM118.5,59.49h1.15v3.53h-1.15v-3.53ZM118.5,58.16h1.15v.88h-1.15v-.88ZM122.15,62.24c.54,0,.71-.53.71-.98s-.17-.99-.71-.99-.7.54-.7.99.16.98.7.98M122.15,59.39c1.09,0,1.86.81,1.86,1.87s-.77,1.86-1.86,1.86-1.85-.8-1.85-1.86.76-1.87,1.85-1.87M124.61,59.49h1.12v.48h.01c.21-.36.69-.58,1.11-.58,1.17,0,1.27.86,1.27,1.37v2.27h-1.15v-1.71c0-.48.05-.97-.58-.97-.43,0-.62.37-.62.76v1.93h-1.15v-3.53ZM130.33,62.41c.55,0,.73-.31.71-1.04-.16.1-.46.12-.71.19-.26.06-.48.17-.48.45s.22.4.48.4M128.84,60.58c.02-.46.24-.76.55-.95.31-.18.72-.24,1.12-.24.83,0,1.64.18,1.64,1.18v1.54c0,.3,0,.63.14.9h-1.16c-.04-.11-.05-.22-.07-.33-.3.31-.74.44-1.16.44-.67,0-1.2-.34-1.2-1.07,0-1.15,1.25-1.06,2.05-1.22.2-.04.3-.11.3-.33,0-.27-.32-.37-.56-.37-.32,0-.52.14-.58.44h-1.08ZM132.95,58.16h1.15v4.86h-1.15v-4.86ZM102.27,33.55c.11,2.31,1.6,3.06,3.86,3.06,1.6,0,3.26-.55,3.26-2.01,0-1.73-2.92-2.06-5.86-2.86-2.91-.8-5.96-2.06-5.96-5.67,0-4.29,4.48-5.97,8.3-5.97,4.05,0,8.13,1.9,8.16,6.33h-5.31c.09-1.79-1.66-2.37-3.28-2.37-1.14,0-2.57.38-2.57,1.68,0,1.52,2.94,1.79,5.92,2.58,2.94.8,5.91,2.12,5.91,5.67,0,4.98-4.39,6.58-8.88,6.58s-8.82-1.98-8.85-7.02h5.31ZM116.54,20.5h5.44l7.09,12.09h.06v-12.09h4.98v19.63h-5.44l-7.08-12.23h-.06v12.23h-4.98v-19.63ZM89.54,27.53c-.29-1.98-1.89-3.03-4.12-3.03-3.43,0-4.75,2.92-4.75,5.84s1.31,5.84,4.75,5.84c2.49,0,3.92-1.38,4.12-3.64h5.32c-.29,5.06-4.14,8.03-9.32,8.03-6.17,0-10.17-4.53-10.17-10.23s3.99-10.23,10.17-10.23c4.4,0,9.18,2.69,9.32,7.42h-5.32ZM26.54,59.9c-.07-.49-.45-.75-.98-.75-.81,0-1.13.72-1.13,1.44s.31,1.44,1.13,1.44c.59,0,.93-.34.98-.9h1.26c-.07,1.25-.98,1.99-2.21,1.99-1.46,0-2.42-1.12-2.42-2.53s.95-2.53,2.42-2.53c1.05,0,2.18.67,2.21,1.84h-1.26Z"/>
  </g>
</svg>