<?xml version="1.0" encoding="UTF-8"?>
<svg id="Camada_1" xmlns="http://www.w3.org/2000/svg" version="1.1" xmlns:xlink="http://www.w3.org/1999/xlink" viewBox="0 0 731.3 221.5">
  <!-- Generator: Adobe Illustrator 29.6.1, SVG Export Plug-In . SVG Version: 2.1.1 Build 9)  -->
  <defs>
    <style>
      .st0 {
        fill: #fff;
      }

      .st1 {
        fill: url(#Gradiente_sem_nome_310);
      }
    </style>
    <linearGradient id="Gradiente_sem_nome_310" data-name="Gradiente sem nome 310" x1="36.26" y1="183.73" x2="204.73" y2="15.26" gradientUnits="userSpaceOnUse">
      <stop offset="0" stop-color="#0088b7"/>
      <stop offset="1" stop-color="#00d493"/>
    </linearGradient>
  </defs>
  <path class="st1" d="M140.97,19.83c0-4.45,3.61-8.05,8.05-8.05s8.05,3.61,8.05,8.05-3.61,8.05-8.05,8.05-8.05-3.61-8.05-8.05ZM210.7,72.28c2.51,0,4.54-2.03,4.54-4.54s-2.03-4.54-4.54-4.54-4.54,2.03-4.54,4.54,2.03,4.54,4.54,4.54ZM190.55,11.33c2.34,0,4.25-1.9,4.25-4.25s-1.9-4.25-4.25-4.25-4.25,1.9-4.25,4.25,1.9,4.25,4.25,4.25ZM196.88,40.37c1.44,0,2.6-1.17,2.6-2.6s-1.16-2.6-2.6-2.6-2.6,1.17-2.6,2.6,1.16,2.6,2.6,2.6ZM212.33,112.93c-1.25,18.77-7.49,36.58-18.03,51.86,1.6,1.76,2.58,4.09,2.58,6.65,0,5.47-4.44,9.91-9.91,9.91-1.94,0-3.75-.57-5.28-1.53-.1.1-.21.21-.31.31-15.46,15.15-34.86,24.91-55.85,28.33-.27,7.24-6.2,13.03-13.51,13.03s-12.77-5.33-13.47-12.16c-31.39-3.03-58.73-20.09-75.69-44.8-.76.27-1.57.43-2.42.43-3.93,0-7.12-3.19-7.12-7.12,0-2.13.94-4.04,2.42-5.34-7.07-14.03-11.06-29.86-11.06-46.61,0-5.73.48-11.39,1.39-16.92-3.58-1.5-6.09-5.03-6.09-9.15,0-5.47,4.44-9.91,9.91-9.91.4,0,.8.03,1.19.08,9.42-25.55,28.68-46.81,53.99-58.49-.08-.52-.14-1.05-.14-1.6,0-5.47,4.44-9.91,9.91-9.91s9.91,4.44,9.91,9.91c0,1.65-.41,3.21-1.13,4.58l15.23,11.25c.82-.6,1.83-.97,2.92-.97,2.74,0,4.97,2.22,4.97,4.97,0,1.49-.67,2.8-1.7,3.71l7.88,17.75c.59-.14,1.2-.22,1.84-.22,2.94,0,5.5,1.59,6.9,3.95l19.78-7.14c0-.07-.02-.14-.02-.21,0-2.74,2.22-4.97,4.97-4.97s4.97,2.22,4.97,4.97c0,.74-.17,1.43-.46,2.06l23.59,19.44c1.42-1.2,3.26-1.92,5.26-1.92,4.52,0,8.18,3.66,8.18,8.18,0,4.13-3.07,7.54-7.05,8.09l-2.01,45.52c.96.25,1.83.69,2.59,1.28l24.82-20.83c-.11-.4-.18-.82-.18-1.26,0-2.74,2.22-4.97,4.97-4.97s4.97,2.22,4.97,4.97c0,2.31-1.59,4.24-3.72,4.79ZM191.82,162.81c9.97-14.45,16.28-31.58,17.54-50.02-.54-.2-1.03-.5-1.47-.86l-24.51,20.57c.53,1,.83,2.13.83,3.34,0,2.75-1.56,5.13-3.83,6.31l5.39,19.46c.39-.05.79-.08,1.19-.08,1.77,0,3.42.47,4.86,1.28ZM12.36,89.43l8.56,61.32c.27.02.54.05.8.1l16.09-39.18c-2.88-1.73-4.82-4.88-4.82-8.49,0-5.47,4.44-9.91,9.91-9.91,1.12,0,2.18.19,3.19.53l13.36-28.57c-1.22-.81-2.24-1.89-2.99-3.15l-36.97,15.25c.21.8.33,1.64.33,2.51,0,4.63-3.18,8.51-7.47,9.6ZM143.69,94.34c1.44.45,2.69,1.31,3.62,2.45l25.06-17.97c-.5-1.06-.79-2.23-.79-3.48,0-1.44.38-2.79,1.03-3.97l-23.69-19.53c-.44.26-.93.47-1.45.58l-3.79,41.92ZM174.1,81.23l-25.39,18.21c.2.68.32,1.41.32,2.16,0,1.79-.62,3.42-1.65,4.72l25.62,23.71c.86-.61,1.85-1.02,2.93-1.2l2.01-45.52c-1.47-.34-2.78-1.07-3.83-2.08ZM114.69,194.7l14.53-42.94c-2.09-1.24-3.49-3.51-3.49-6.12,0-1.56.51-3,1.36-4.17l-24.18-26.8c-1.33.97-2.84,1.69-4.48,2.14l12.96,77.66c.21,0,.42-.03.63-.03.92,0,1.81.09,2.67.27ZM26.17,153.63l26.22-12.85c-.09-.42-.14-.86-.14-1.31,0-1.89.85-3.59,2.2-4.72l-9.06-21.98c-.79.2-1.62.32-2.48.32-.81,0-1.6-.11-2.35-.29l-16.09,39.18c.66.45,1.24,1.02,1.71,1.66ZM84.07,112.08c-1.6-2.01-2.65-4.47-2.92-7.17l-28.46-.19c-.46,2.91-2.17,5.39-4.58,6.88l9,21.83c.42-.09.86-.14,1.32-.14,1.18,0,2.28.34,3.22.92l22.42-22.13ZM132.73,138.53l5.83-29.91c-2.23-.91-3.92-2.86-4.49-5.24l-25.49,1.05c-.21,3.16-1.48,6.02-3.46,8.25l24.18,26.8c1.02-.59,2.19-.93,3.44-.96ZM139.33,142.69l30.65-6.79s0-.04,0-.06c0-1.33.37-2.57,1.01-3.64l-25.88-23.96c-1.08.6-2.31.94-3.63.94l-5.83,29.9c1.64.7,2.95,1.99,3.69,3.6ZM134.25,99.15l-61.78-35.74c-1.82,2.12-4.51,3.47-7.52,3.47-.98,0-1.92-.15-2.81-.41l-13.42,28.68c2.12,1.54,3.59,3.89,3.98,6.6l28.46.19c.78-6.86,6.6-12.2,13.68-12.2s12.61,5.09,13.6,11.73l25.49-1.05c.07-.44.17-.86.31-1.27ZM27.57,157.85c0,.27-.02.53-.05.79l41.08,12.19c1.21-2.22,3.56-3.72,6.26-3.72.1,0,.19.01.29.01l14.68-50.79c-1.34-.53-2.59-1.25-3.68-2.14l-22.41,22.12c.55.92.87,2,.87,3.15,0,3.41-2.77,6.18-6.18,6.18-1.9,0-3.6-.86-4.73-2.21l-26.29,12.89c.11.49.17,1,.17,1.52ZM81.98,174.24c0,1.31-.36,2.53-.97,3.58l22.05,20.02c1.53-1.35,3.37-2.36,5.4-2.92l-12.96-77.66c-.22.01-.44.03-.66.03-.74,0-1.45-.07-2.16-.19l-14.67,50.75c2.35,1.17,3.96,3.58,3.96,6.38ZM171.36,140.05c-.29-.39-.54-.81-.74-1.26l-30.65,6.79s0,.04,0,.06c0,3.93-3.19,7.12-7.12,7.12-.28,0-.56-.02-.83-.05l-14.51,42.89c1.02.45,1.97,1.03,2.83,1.71l51.02-57.26ZM122.68,57.72c.07.42.11.84.11,1.28,0,4.43-3.59,8.01-8.01,8.01-4.03,0-7.36-2.98-7.92-6.85l-32.18-1.3c-.14.71-.35,1.4-.63,2.05l61.69,35.69c1.25-1.42,3.01-2.37,5-2.55l3.78-41.86c-.83-.34-1.53-.9-2.06-1.6l-19.78,7.14ZM81.9,16.89c-1.8,1.81-4.29,2.94-7.04,2.94-.11,0-.22-.01-.32-.02l-6.06,27.91c3.41,1.3,5.92,4.42,6.32,8.17l32.18,1.3c.45-1.98,1.64-3.68,3.26-4.8l-7.88-17.75c-.19.02-.37.06-.56.06-2.74,0-4.97-2.22-4.97-4.97,0-.57.12-1.1.29-1.61l-15.22-11.24ZM13.97,70.79c1.8.81,3.32,2.14,4.35,3.81l37.01-15.26c-.19-.76-.3-1.55-.3-2.36,0-5.48,4.44-9.91,9.91-9.91.21,0,.42.02.63.03l6.04-27.82c-2.45-.85-4.46-2.63-5.61-4.92-24.36,11.34-42.9,31.83-52.04,56.44ZM7.66,105.9c0,15.81,3.66,30.79,10.17,44.13l-8.42-60.31c-.15,0-.29,0-.43-.02-.86,5.3-1.31,10.71-1.31,16.2ZM98.58,206.37c.28-2.35,1.16-4.52,2.49-6.34l-22.05-20.02c-1.17.84-2.6,1.35-4.16,1.35-3.93,0-7.12-3.19-7.12-7.12,0-.19.01-.37.03-.56l-41.19-12.22c-.33.56-.73,1.07-1.2,1.52,16.43,23.89,42.86,40.39,73.2,43.4ZM179.29,177.72c-1.4-1.71-2.24-3.89-2.24-6.27,0-4.03,2.41-7.5,5.87-9.04l-5.39-19.46c-.14,0-.28.02-.43.02-1.28,0-2.48-.34-3.52-.94l-51.1,57.35c1.42,1.72,2.41,3.8,2.84,6.09,20.76-3.52,39.48-13.48,53.98-27.74Z"/>
  <path class="st0" d="M318.59,134.2h-35.69c-1.37,0-2.87-.24-4.49-.72-1.62-.48-3.13-1.27-4.51-2.38-1.38-1.1-2.54-2.54-3.46-4.3-.93-1.76-1.39-3.92-1.39-6.49v-35.69c0-.68.13-1.33.38-1.94.25-.61.6-1.14,1.05-1.6.44-.46.97-.81,1.58-1.06s1.27-.38,1.98-.38h44.55v9.89h-39.64v30.78c0,1.29.34,2.28,1.03,2.97.68.68,1.69,1.03,3.01,1.03h35.61v9.89ZM314.14,111.91h-31.23v-9.97h31.23v9.97Z"/>
  <path class="st0" d="M384.79,112.14c0,2.54-.34,4.93-1.01,7.17-.67,2.24-1.62,4.28-2.85,6.11-1.23,1.83-2.71,3.42-4.45,4.79-1.74,1.37-3.67,2.45-5.8,3.23l11.57,9.17h-14.34l-9.51-7.65h-9.74c-3.27,0-6.3-.56-9.09-1.69-2.79-1.13-5.2-2.71-7.23-4.74-2.03-2.03-3.62-4.44-4.77-7.23-1.15-2.79-1.73-5.85-1.73-9.17v-10.42c0-3.3.58-6.35,1.73-9.15,1.15-2.8,2.75-5.21,4.77-7.23,2.03-2.02,4.44-3.6,7.23-4.74,2.79-1.14,5.82-1.71,9.09-1.71h13.39c3.27,0,6.3.57,9.07,1.71,2.78,1.14,5.18,2.72,7.21,4.74,2.03,2.02,3.61,4.43,4.76,7.23,1.14,2.8,1.71,5.85,1.71,9.15v10.42ZM374.9,101.71c0-1.95-.31-3.72-.93-5.31-.62-1.59-1.5-2.94-2.63-4.07-1.13-1.13-2.49-2-4.07-2.62-1.59-.62-3.33-.93-5.23-.93h-13.39c-1.93,0-3.68.31-5.27.93-1.59.62-2.95,1.5-4.09,2.62-1.14,1.13-2.02,2.49-2.64,4.07-.62,1.59-.93,3.35-.93,5.31v10.42c0,1.95.31,3.72.93,5.31.62,1.59,1.5,2.94,2.64,4.07,1.14,1.13,2.5,2,4.09,2.62,1.58.62,3.34.93,5.27.93h13.32c1.93,0,3.68-.31,5.27-.93,1.58-.62,2.95-1.5,4.09-2.62,1.14-1.13,2.02-2.49,2.64-4.07.62-1.58.93-3.35.93-5.31v-10.42Z"/>
  <path class="st0" d="M448.93,102.48c0,2.26-.28,4.27-.84,6.05-.56,1.78-1.31,3.34-2.26,4.7-.95,1.36-2.05,2.52-3.29,3.48-1.24.96-2.54,1.75-3.9,2.36-1.36.61-2.73,1.05-4.11,1.33-1.38.28-2.68.42-3.9.42h-22.37v-9.89h22.37c1.27-.1,2.42-.36,3.44-.78,1.03-.42,1.91-.98,2.64-1.69.74-.71,1.31-1.57,1.71-2.57.41-1,.61-2.14.61-3.4v-4.49c-.13-1.24-.39-2.38-.8-3.42-.41-1.04-.96-1.93-1.65-2.66-.7-.74-1.54-1.31-2.53-1.73-.99-.42-2.13-.63-3.42-.63h-22.29c-1.32,0-2.32.34-3.01,1.03-.68.68-1.03,1.67-1.03,2.97v40.67h-9.89v-40.67c0-2.54.46-4.69,1.39-6.47.93-1.78,2.08-3.21,3.46-4.3,1.38-1.09,2.88-1.88,4.51-2.38,1.62-.49,3.12-.74,4.49-.74h22.37c2.23,0,4.24.29,6.01.86,1.78.57,3.34,1.33,4.7,2.28,1.36.95,2.51,2.05,3.46,3.29.95,1.24,1.74,2.54,2.36,3.9.62,1.36,1.07,2.73,1.35,4.11.28,1.38.42,2.68.42,3.9v4.49Z"/>
  <path class="st0" d="M467.35,134.2h-9.89v-54.56h9.89v54.56Z"/>
  <path class="st0" d="M552.72,89.54h-21.8v44.66h-9.89v-44.66h-21.84v-9.89h53.53v9.89Z"/>
  <path class="st0" d="M609.29,134.2h-35.69c-1.37,0-2.87-.24-4.49-.72-1.62-.48-3.13-1.27-4.51-2.38-1.38-1.1-2.54-2.54-3.46-4.3-.93-1.76-1.39-3.92-1.39-6.49v-35.69c0-.68.13-1.33.38-1.94.25-.61.6-1.14,1.05-1.6.44-.46.97-.81,1.58-1.06s1.27-.38,1.98-.38h44.55v9.89h-39.64v30.78c0,1.29.34,2.28,1.03,2.97.68.68,1.69,1.03,3.01,1.03h35.61v9.89ZM604.84,111.91h-31.23v-9.97h31.23v9.97Z"/>
  <path class="st0" d="M667.34,134.2h-35.69c-.91,0-1.9-.11-2.95-.32-1.05-.22-2.09-.55-3.12-1.01-1.03-.46-2.01-1.05-2.95-1.77-.94-.72-1.77-1.6-2.49-2.63-.72-1.03-1.3-2.22-1.73-3.58-.43-1.36-.65-2.89-.65-4.58v-26.78c0-.91.11-1.9.32-2.95.22-1.05.55-2.09,1.01-3.12.46-1.03,1.05-2.01,1.79-2.95.74-.94,1.62-1.77,2.64-2.49,1.03-.72,2.21-1.3,3.56-1.73,1.34-.43,2.87-.65,4.57-.65h35.69v9.89h-35.69c-1.29,0-2.28.34-2.97,1.03-.68.68-1.03,1.7-1.03,3.04v26.71c0,1.27.35,2.25,1.05,2.95.7.7,1.68,1.05,2.95,1.05h35.69v9.89Z"/>
  <path class="st0" d="M686.67,101.94h34.73v-22.29h9.89v54.56h-9.89v-22.29h-34.73v22.29h-9.89v-54.56h9.89v22.29Z"/>
</svg>