<?xml version="1.0" encoding="UTF-8"?>
<svg id="Camada_1" xmlns="http://www.w3.org/2000/svg" version="1.1" viewBox="0 0 157.28 78.22">
  <!-- Generator: Adobe Illustrator 29.6.1, SVG Export Plug-In . SVG Version: 2.1.1 Build 9)  -->
  <defs>
    <style>
      .st0 {
        fill: none;
      }

      .st1 {
        fill: #d49e0d;
      }
    </style>
  </defs>
  <rect class="st0" width="157.28" height="78.22"/>
  <g id="Ebene_x5F_1">
    <polygon class="st1" points="140.44 57.88 16.84 57.88 16.84 20.35 140.44 20.35 140.44 57.88"/>
    <polygon points="138.18 22.69 19.14 22.69 19.14 55.81 138.18 55.81 138.18 22.69"/>
    <path class="st1" d="M34.43,38.4h.1c.68-.74,3.61-3.73,4.19-4.41.56-.66,1-1.16,1-1.51,0-.22-.08-.36-.28-.4-.18-.04-.26-.08-.26-.2,0-.14.1-.18.32-.18.42,0,1.52.06,2.07.06.62,0,1.72-.06,2.35-.06.2,0,.34.04.34.18s-.1.18-.3.18c-.28,0-.78.08-1.16.22-.62.24-1.3.66-2.16,1.5-.62.6-3.65,3.61-4.33,4.33.72.94,4.65,5.17,5.43,5.91.88.84,1.79,1.74,2.87,2.16.6.24,1,.3,1.24.3.14,0,.26.04.26.16,0,.14-.1.2-.48.2h-1.74c-.6,0-.96,0-1.38-.04-1.08-.1-1.62-.54-2.49-1.3-.88-.78-4.83-5.41-5.25-6l-.22-.3h-.1v1.82c0,1.85,0,3.43.06,4.29.04.56.22,1,.72,1.08.28.04.72.08.98.08.16,0,.26.06.26.16,0,.14-.16.2-.38.2-1.12,0-2.39-.06-2.89-.06-.46,0-1.72.06-2.53.06-.26,0-.4-.06-.4-.2,0-.1.08-.16.32-.16.3,0,.54-.04.72-.08.4-.08.5-.52.58-1.1.1-.84.1-2.43.1-4.27v-3.53c0-3.05,0-3.61-.04-4.25-.04-.68-.2-1-.86-1.14-.16-.04-.5-.06-.78-.06-.22,0-.34-.04-.34-.18s.14-.18.44-.18c1.06,0,2.32.06,2.81.06s1.75-.06,2.43-.06c.28,0,.42.04.42.18s-.12.18-.28.18c-.2,0-.32.02-.56.06-.54.1-.7.44-.74,1.14-.04.64-.04,1.2-.04,4.25v.88h0Z"/>
    <path class="st1" d="M48.64,37.52c0-3.05,0-3.61-.04-4.25-.04-.68-.24-1.02-.68-1.12-.22-.06-.48-.08-.72-.08-.2,0-.32-.04-.32-.2,0-.12.16-.16.48-.16.76,0,2.03.06,2.61.06.5,0,1.68-.06,2.45-.06.26,0,.42.04.42.16,0,.16-.12.2-.32.2s-.36.02-.6.06c-.54.1-.7.44-.74,1.14-.04.64-.04,1.2-.04,4.25v3.53c0,1.95,0,3.53.08,4.39.06.54.2.9.8.99.28.04.72.08,1.02.08.22,0,.32.06.32.16,0,.14-.16.2-.38.2-1.32,0-2.59-.06-3.13-.06-.46,0-1.73.06-2.53.06-.26,0-.4-.06-.4-.2,0-.1.08-.16.32-.16.3,0,.54-.04.72-.08.4-.08.52-.42.58-1,.1-.84.1-2.43.1-4.37v-3.53h0Z"/>
    <path class="st1" d="M58.4,44.13c.04,1.56.3,2.09.7,2.23.34.12.72.14,1.04.14.22,0,.34.04.34.16,0,.16-.18.2-.46.2-1.3,0-2.11-.06-2.49-.06-.18,0-1.12.06-2.16.06-.26,0-.44-.02-.44-.2,0-.12.12-.16.32-.16.26,0,.62-.02.9-.1.52-.16.6-.74.62-2.49l.18-11.87c0-.4.06-.68.26-.68.22,0,.4.26.74.62.24.26,3.29,3.53,6.22,6.44,1.36,1.36,4.07,4.25,4.41,4.57h.1l-.2-9c-.02-1.22-.2-1.61-.68-1.81-.3-.12-.78-.12-1.06-.12-.24,0-.32-.06-.32-.18,0-.16.22-.18.52-.18,1.04,0,2.01.06,2.43.06.22,0,.98-.06,1.97-.06.26,0,.46.02.46.18,0,.12-.12.18-.36.18-.2,0-.36,0-.6.06-.56.16-.72.58-.74,1.7l-.22,12.65c0,.44-.08.62-.26.62-.22,0-.46-.22-.68-.44-1.26-1.2-3.83-3.83-5.91-5.89-2.18-2.17-4.41-4.67-4.77-5.05h-.06l.22,8.42h0Z"/>
    <path class="st1" d="M78.21,39.1c0,.22.04.3.18.36.42.14,1.02.2,1.52.2.8,0,1.06-.08,1.42-.34.6-.44,1.18-1.36,1.18-3.01,0-2.85-1.88-3.67-3.07-3.67-.5,0-.86.02-1.06.08-.14.04-.18.12-.18.28v6.1h0ZM75.85,37.52c0-3.05,0-3.61-.04-4.25-.04-.68-.2-1-.86-1.14-.16-.04-.5-.06-.78-.06-.22,0-.34-.04-.34-.18s.14-.18.44-.18c1.06,0,2.32.06,2.75.06.68,0,2.21-.06,2.83-.06,1.26,0,2.61.12,3.69.86.56.38,1.36,1.4,1.36,2.75,0,1.48-.62,2.85-2.65,4.49,1.78,2.25,3.17,4.03,4.35,5.27,1.12,1.16,1.95,1.3,2.25,1.37.22.04.4.06.56.06s.24.06.24.16c0,.16-.14.2-.38.2h-1.91c-1.12,0-1.62-.1-2.15-.38-.86-.46-1.62-1.41-2.75-2.95-.8-1.1-1.72-2.47-1.99-2.77-.1-.12-.22-.14-.36-.14l-1.74-.04c-.1,0-.16.04-.16.16v.28c0,1.86,0,3.45.1,4.29.06.58.18,1.02.78,1.1.3.04.74.08.98.08.16,0,.24.06.24.16,0,.14-.14.2-.4.2-1.16,0-2.65-.06-2.95-.06-.38,0-1.64.06-2.45.06-.26,0-.4-.06-.4-.2,0-.1.08-.16.32-.16.3,0,.54-.04.72-.08.4-.08.5-.52.58-1.1.1-.84.1-2.43.1-4.27v-3.53h0Z"/>
    <path class="st1" d="M102.28,39.66c0-4.49-2.59-7.28-5.87-7.28-2.3,0-4.93,1.28-4.93,6.28,0,4.17,2.31,7.48,6.15,7.48,1.4,0,4.65-.68,4.65-6.48h0ZM88.7,39.28c0-3.43,2.26-7.86,8.28-7.86,4.99,0,8.1,2.91,8.1,7.5s-3.21,8.22-8.3,8.22c-5.76,0-8.08-4.31-8.08-7.86Z"/>
    <path class="st1" d="M107.95,46.62c-.32-.14-.38-.24-.38-.68,0-1.1.08-2.31.1-2.63.02-.3.08-.52.24-.52.18,0,.2.18.2.34,0,.26.08.68.18,1.02.44,1.48,1.63,2.02,2.87,2.02,1.8,0,2.69-1.22,2.69-2.29,0-.98-.3-1.93-1.97-3.21l-.92-.72c-2.21-1.72-2.97-3.13-2.97-4.75,0-2.21,1.85-3.79,4.63-3.79,1.3,0,2.14.2,2.67.34.18.04.28.1.28.24,0,.26-.08.84-.08,2.41,0,.44-.06.6-.22.6-.14,0-.2-.12-.2-.36,0-.18-.1-.8-.52-1.32-.3-.38-.88-.98-2.19-.98-1.48,0-2.39.86-2.39,2.07,0,.92.46,1.62,2.13,2.89l.56.42c2.41,1.86,3.29,3.21,3.29,5.11,0,1.16-.44,2.54-1.89,3.49-1,.64-2.12.82-3.19.82-1.16,0-2.07-.14-2.93-.52h0Z"/>
    <path class="st1" d="M119.62,46.62c-.32-.14-.38-.24-.38-.68,0-1.1.08-2.31.1-2.63.02-.3.08-.52.24-.52.18,0,.2.18.2.34,0,.26.08.68.18,1.02.44,1.48,1.62,2.02,2.87,2.02,1.8,0,2.68-1.22,2.68-2.29,0-.98-.3-1.93-1.96-3.21l-.92-.72c-2.21-1.72-2.97-3.13-2.97-4.75,0-2.21,1.84-3.79,4.63-3.79,1.3,0,2.15.2,2.67.34.18.04.28.1.28.24,0,.26-.08.84-.08,2.41,0,.44-.06.6-.22.6-.14,0-.2-.12-.2-.36,0-.18-.1-.8-.52-1.32-.3-.38-.88-.98-2.19-.98-1.48,0-2.38.86-2.38,2.07,0,.92.46,1.62,2.13,2.89l.56.42c2.41,1.86,3.29,3.21,3.29,5.11,0,1.16-.44,2.54-1.88,3.49-1,.64-2.12.82-3.19.82-1.17,0-2.07-.14-2.93-.52h0Z"/>
  </g>
</svg>