<?xml version="1.0" encoding="UTF-8"?>
<svg id="Camada_1" xmlns="http://www.w3.org/2000/svg" version="1.1" viewBox="0 0 985.05 285.72">
  <!-- Generator: Adobe Illustrator 29.6.1, SVG Export Plug-In . SVG Version: 2.1.1 Build 9)  -->
  <defs>
    <style>
      .st0 {
        fill: #fff;
      }
    </style>
  </defs>
  <path class="st0" d="M401.58,162.21c0,1.51-.26,3.13-.78,4.85-.52,1.73-1.37,3.33-2.54,4.81s-2.71,2.71-4.59,3.7c-1.88.99-4.19,1.48-6.93,1.48h-46.51c-.88,0-1.7-.16-2.45-.47-.75-.31-1.41-.75-1.96-1.3-.55-.55-.98-1.2-1.3-1.95-.31-.75-.47-1.57-.47-2.45v-55.22c0-.85.16-1.65.47-2.4.31-.75.75-1.41,1.3-1.98.55-.57,1.2-1,1.96-1.32.75-.31,1.57-.47,2.45-.47h40.99c1.51,0,3.13.27,4.85.8,1.73.53,3.34,1.39,4.83,2.57,1.49,1.18,2.73,2.71,3.72,4.59s1.48,4.19,1.48,6.93v2.31c0,2.17-.36,4.5-1.08,7-.72,2.5-1.88,4.86-3.49,7.09,1.38.85,2.68,1.87,3.89,3.06,1.21,1.19,2.27,2.58,3.18,4.15.91,1.57,1.63,3.35,2.17,5.32.53,1.98.8,4.16.8,6.55v2.36ZM389.33,159.85c0-1.6-.25-3.04-.75-4.31-.5-1.27-1.21-2.36-2.12-3.27-.91-.91-2.01-1.61-3.3-2.1-1.29-.49-2.73-.73-4.34-.73h-27.61v-12.35h22.1c1.6,0,3.05-.24,4.33-.73,1.29-.49,2.39-1.19,3.3-2.1.91-.91,1.61-2,2.1-3.27.49-1.27.73-2.71.73-4.31v-2.31c0-1.76-.85-2.64-2.54-2.64h-34.92v43.07h40.43c.22,0,.49-.02.8-.05.31-.03.6-.13.85-.28.25-.16.47-.42.66-.8s.28-.9.28-1.56v-2.26Z"/>
  <path class="st0" d="M474.66,177.05h-44.2c-1.13,0-2.35-.13-3.65-.4-1.3-.27-2.59-.68-3.86-1.25s-2.49-1.3-3.65-2.19c-1.16-.9-2.19-1.98-3.09-3.25s-1.61-2.75-2.14-4.43c-.53-1.68-.8-3.57-.8-5.68v-33.17c0-1.13.13-2.35.4-3.65.27-1.3.68-2.59,1.25-3.86s1.3-2.49,2.21-3.65c.91-1.16,2-2.19,3.27-3.09s2.74-1.61,4.41-2.14c1.66-.53,3.55-.8,5.65-.8h44.2v12.25h-44.2c-1.6,0-2.83.42-3.68,1.27-.85.85-1.27,2.1-1.27,3.77v33.08c0,1.57.43,2.79,1.3,3.65.86.86,2.08,1.3,3.65,1.3h44.2v12.25Z"/>
  <path class="st0" d="M589.02,132.19c0,2.8-.35,5.29-1.04,7.49-.69,2.2-1.63,4.14-2.8,5.82s-2.54,3.12-4.08,4.31c-1.54,1.19-3.15,2.18-4.83,2.94-1.68.77-3.38,1.33-5.09,1.67-1.71.35-3.32.52-4.83.52l25.59,22.1h-18.94l-25.54-22.1h-8.81v-12.25h27.71c1.54-.12,2.94-.45,4.22-.97s2.37-1.22,3.3-2.1c.93-.88,1.64-1.94,2.14-3.18.5-1.24.75-2.66.75-4.26v-7.73c0-.69-.09-1.22-.26-1.58-.17-.36-.39-.63-.66-.8-.27-.17-.55-.27-.85-.31-.3-.03-.57-.05-.82-.05h-40.43v55.32h-12.25v-61.4c0-.85.16-1.65.47-2.4.31-.75.75-1.41,1.3-1.98.55-.57,1.2-1,1.96-1.32.75-.31,1.57-.47,2.45-.47h46.51c2.73,0,5.04.49,6.93,1.48,1.88.99,3.42,2.23,4.59,3.72,1.18,1.49,2.03,3.1,2.54,4.83.52,1.73.78,3.35.78,4.85v7.82Z"/>
  <path class="st0" d="M664.31,177.05h-44.2c-1.7,0-3.55-.3-5.56-.9-2.01-.6-3.87-1.58-5.58-2.94-1.71-1.37-3.14-3.14-4.29-5.32-1.15-2.18-1.72-4.86-1.72-8.03v-44.2c0-.85.16-1.65.47-2.4.31-.75.75-1.41,1.3-1.98.55-.57,1.2-1,1.96-1.32.75-.31,1.57-.47,2.45-.47h55.18v12.25h-49.1v38.12c0,1.6.42,2.83,1.27,3.68.85.85,2.09,1.27,3.72,1.27h44.1v12.25ZM658.8,149.44h-38.69v-12.35h38.69v12.35Z"/>
  <path class="st0" d="M745.41,137.75c0,2.8-.35,5.29-1.04,7.49-.69,2.2-1.63,4.14-2.8,5.82-1.18,1.68-2.54,3.12-4.08,4.31-1.54,1.19-3.15,2.17-4.83,2.92-1.68.75-3.38,1.3-5.09,1.65-1.71.35-3.32.52-4.83.52h-27.71v-12.25h27.71c1.57-.12,2.99-.45,4.26-.97s2.36-1.22,3.27-2.1c.91-.88,1.62-1.94,2.12-3.18.5-1.24.75-2.65.75-4.22v-5.56c-.16-1.54-.49-2.95-.99-4.24-.5-1.29-1.19-2.39-2.05-3.3-.86-.91-1.91-1.63-3.13-2.14-1.23-.52-2.64-.78-4.24-.78h-27.61c-1.63,0-2.87.42-3.72,1.27-.85.85-1.27,2.07-1.27,3.68v50.37h-12.25v-50.37c0-3.14.57-5.81,1.72-8.01,1.15-2.2,2.58-3.97,4.29-5.32,1.71-1.35,3.57-2.33,5.58-2.94,2.01-.61,3.86-.92,5.56-.92h27.71c2.76,0,5.25.35,7.45,1.06,2.2.71,4.14,1.65,5.82,2.83,1.68,1.18,3.11,2.54,4.29,4.08,1.18,1.54,2.15,3.15,2.92,4.83.77,1.68,1.33,3.38,1.67,5.09.35,1.71.52,3.32.52,4.83v5.56Z"/>
  <path class="st0" d="M828.71,149.72c0,4.12-.71,7.9-2.12,11.36-1.41,3.46-3.38,6.44-5.89,8.95-2.51,2.51-5.49,4.47-8.93,5.87-3.44,1.4-7.19,2.1-11.24,2.1h-16.59c-4.05,0-7.81-.7-11.26-2.1-3.46-1.4-6.44-3.35-8.95-5.87-2.51-2.51-4.48-5.5-5.91-8.95-1.43-3.46-2.14-7.24-2.14-11.36v-12.91c0-4.08.71-7.86,2.14-11.33,1.43-3.47,3.4-6.46,5.91-8.95,2.51-2.5,5.5-4.45,8.95-5.87,3.46-1.41,7.21-2.12,11.26-2.12h16.59c4.05,0,7.8.71,11.24,2.12s6.42,3.37,8.93,5.87c2.51,2.5,4.48,5.48,5.89,8.95,1.41,3.47,2.12,7.25,2.12,11.33v12.91ZM816.46,136.81c0-2.42-.38-4.61-1.15-6.57-.77-1.96-1.85-3.64-3.25-5.04-1.4-1.4-3.08-2.48-5.04-3.25-1.96-.77-4.12-1.15-6.48-1.15h-16.59c-2.39,0-4.56.39-6.53,1.15-1.96.77-3.65,1.85-5.07,3.25-1.41,1.4-2.51,3.08-3.27,5.04-.77,1.96-1.15,4.15-1.15,6.57v12.91c0,2.42.38,4.61,1.15,6.57.77,1.96,1.86,3.64,3.27,5.04,1.41,1.4,3.1,2.48,5.07,3.25,1.96.77,4.14,1.15,6.53,1.15h16.49c2.39,0,4.56-.38,6.53-1.15,1.96-.77,3.65-1.85,5.07-3.25,1.41-1.4,2.5-3.08,3.27-5.04.77-1.96,1.15-4.15,1.15-6.57v-12.91Z"/>
  <path class="st0" d="M910.27,132.19c0,2.8-.35,5.29-1.04,7.49-.69,2.2-1.63,4.14-2.8,5.82s-2.54,3.12-4.08,4.31c-1.54,1.19-3.15,2.18-4.83,2.94-1.68.77-3.38,1.33-5.09,1.67-1.71.35-3.32.52-4.83.52l25.59,22.1h-18.94l-25.54-22.1h-8.81v-12.25h27.71c1.54-.12,2.94-.45,4.22-.97s2.37-1.22,3.3-2.1c.93-.88,1.64-1.94,2.14-3.18.5-1.24.75-2.66.75-4.26v-7.73c0-.69-.09-1.22-.26-1.58-.17-.36-.39-.63-.66-.8-.27-.17-.55-.27-.85-.31-.3-.03-.57-.05-.82-.05h-40.43v55.32h-12.25v-61.4c0-.85.16-1.65.47-2.4.31-.75.75-1.41,1.3-1.98.55-.57,1.2-1,1.96-1.32.75-.31,1.57-.47,2.45-.47h46.51c2.73,0,5.04.49,6.93,1.48,1.88.99,3.42,2.23,4.59,3.72,1.18,1.49,2.03,3.1,2.54,4.83.52,1.73.78,3.35.78,4.85v7.82Z"/>
  <path class="st0" d="M985.05,121.73h-27v55.32h-12.25v-55.32h-27.05v-12.25h66.3v12.25Z"/>
  <path class="st0" d="M142.99,286.29C64.14,286.29,0,222.14,0,143.3S64.14.31,142.99.31s142.99,64.14,142.99,142.99-64.14,142.99-142.99,142.99ZM142.99,10.11C69.55,10.11,9.8,69.86,9.8,143.3s59.75,133.19,133.19,133.19,133.19-59.75,133.19-133.19S216.43,10.11,142.99,10.11Z"/>
  <path class="st0" d="M183.19,105.03l-38.27-30.62-38.27,53.58-30.62-22.96v99.51h137.78v-99.51h-30.62ZM198.49,181.19l-53.58-41.72-30.62,42.1-22.96-18.37v-27.56l18.68,14.01,37.97-53.2,29.85,23.88h20.67v60.85Z"/>
</svg>