<?xml version="1.0" encoding="UTF-8"?>
<svg id="Camada_1" xmlns="http://www.w3.org/2000/svg" version="1.1" viewBox="0 0 157.3 78.2">
  <!-- Generator: Adobe Illustrator 29.6.1, SVG Export Plug-In . SVG Version: 2.1.1 Build 9)  -->
  <defs>
    <style>
      .st0 {
        fill: none;
      }

      .st1 {
        fill: #c50726;
      }
    </style>
  </defs>
  <rect class="st0" width="157.3" height="78.2"/>
  <g>
    <path class="st1" d="M97.1,40.4v-2.7l.2-.2h5v7.6h2.7l.2-.2v-4.3l-1.5-.2v-2.9h5.2v.7c1.6-1.2,4.4-1.1,5.3.9s.4,1.8.4,2.2v3.8h3.1l.2-.2v-4.3l-1.5-.2v-2.7l.2-.2h5v7.6h3.4v-4.5l-1.5-.2v-2.7l.2-.2h5v.6c1.7-.8,4.2-1.2,5.2.9s.5,1.5.5,1.8v4.4h1.4v2.9h-5l-.2-.2v-6.8c0,0-.1-.2-.2-.3-.7-.2-1.2.2-1.8.4v4h.7v2.9h-18.2l-.2-.2v-6.8c0-.6-1.7-.3-2,.1v4h.7v2.9h-17.6v-6.7c0-1-2.3-.6-2.8,0v3.8h1.5v2.9h-5.2v-6c0,0-.2-.9-.3-1-.5-.8-2,0-2.6.2v3.6s.3.2.3.2h1.2s0,2.9,0,2.9h-6.7v-2.9h1.5v-4.7h-1.5v-2.9h5.2v.6c1.5-.6,3.4-1,4.8-.2s.7.7.9.7c1.8-1.3,5.8-2,6.9.5s.3.8.3.8v5l.2.2h2.7l.2-.2v-4.3l-1.5-.2Z"/>
    <path class="st1" d="M51.5,33.3v11.8h2.9v-4.5l-1.5-.2v-2.7l.2-.2h5v7.6h2.8v-4.7h-1.4v-2.9h5v.6c1.5-.6,3.2-1.2,4.6,0s1.1,1.7,1.1,2.2v4.8h1.4v2.9h-5v-6.7c0-1-1.7-.6-2.1,0v3.6s.8.2.8.2v2.7l-.2.2h-17.2l-.2-.7c-3.4,2.3-6.7-.6-6.8-4.2s3-7.3,6.8-5.1v-1.9h-1.4v-2.8h5.2ZM46.2,40.4c-2,.1-1.9,4.1-.5,4.5,2.9.9,2.9-4.6.5-4.5Z"/>
    <path class="st1" d="M39.1,45.1h1.4v2.9h-5v-6.7c0-1-1.7-.6-2.1,0v3.8h.8v2.7l-.2.2h-11v-.6c-1.7.9-4,1.1-5.1-.6s-.6-1.2-.6-1.5v-4.9h-1.4v-2.9h5v6.6c0,1.3,1.5.9,2.1.3v-4h-.7v-2.9h4.3v7.6h3.1v-4.7h-1.4v-2.9h5v.6c1.5-.5,3-1.1,4.5,0s1.3,1.8,1.3,2.4v4.8Z"/>
    <path class="st1" d="M147.7,40.4h-1.3s-.3.2-.3.2c-.2,2.6.2,5.4,0,7.9s-1.8,3.7-4,4-4.5,0-5.9-1.3l1.7-2.4h.3c1.7,1.2,4.6,1.1,4.3-1.5-2.9,2.2-6.2.3-6.5-3.1s-.1-3.8.9-5.1,3.8-2.1,5.7-.8v-.7h5.1l.2.2v2.7ZM140.5,40.5c-1.8.3-1.7,4.7.5,4.4,2.1-.5,1.8-4.9-.5-4.4Z"/>
    <polygon class="st1" points="14.6 33.3 14.6 45.1 16 45.1 16 48 9.5 48 9.5 45.1 11 45.1 11 36.3 9.5 36.1 9.5 33.3 14.6 33.3"/>
    <path class="st1" d="M55.8,33c2.8-.6,3.3,3.5.9,4s-3.2-3.5-.9-4Z"/>
    <path class="st1" d="M121.1,33.5c2.1,2-1.3,5.2-2.9,2.7s1.4-4.3,2.9-2.7Z"/>
    <path class="st1" d="M100,33c3-.5,3.3,4.2.2,4s-2.3-3.6-.2-4Z"/>
  </g>
</svg>