<?xml version="1.0" encoding="UTF-8"?>
<svg id="Camada_1" xmlns="http://www.w3.org/2000/svg" version="1.1" viewBox="0 0 157.28 78.22">
  <!-- Generator: Adobe Illustrator 29.6.1, SVG Export Plug-In . SVG Version: 2.1.1 Build 9)  -->
  <defs>
    <style>
      .st0 {
        fill: #303435;
      }

      .st1 {
        fill: #0d1856;
      }

      .st2 {
        fill: #b79c0e;
      }

      .st3 {
        fill: none;
      }

      .st4 {
        fill: #464949;
      }
    </style>
  </defs>
  <rect class="st3" width="157.28" height="78.22"/>
  <g>
    <path class="st0" d="M157.11,40.19c-5.4,2.27-11.83.91-12.46-5.78s3.46-10.77,10-9.35c2.51.54,2.39.85,1.53,3.15-4.91-2.25-8.99-.2-8.63,5.46.33,5.15,4.49,5.92,8.7,4.23l.86,1.98v.31Z"/>
    <path class="st2" d="M37.34,43.2c2.68,3.98,6.46,9.01,8.72,13.18.1.18.21.29.15.54-1.36-.46-2.65-1.13-4.01-1.6-11.64-4.05-25.57-4.01-37.29-.35-1.65.52-3.3,1.13-4.9,1.8-.05-.24.03-.35.15-.54,4.12-6.45,16.6-12.06,23.69-13.85,3.93-.99,8.04-1.46,12.1-1.24.29.09,1.13,1.67,1.4,2.06Z"/>
    <path class="st1" d="M34.67,35.43c-7.5.98-14.65,3.74-21.09,7.61-.43.26-3.69,2.54-3.86,2.37l15.56-24.1,9.39,14.12Z"/>
    <path class="st0" d="M108.59,25.37c.1-.32,1.76-.29,2.08-.23.62.12,2.7,2.88,3.22,3.54,1.71,2.18,3.25,4.49,4.87,6.74l.16-10.29h2.54l.23.23v15.43h-2.39c-1.72-2.5-3.25-5.12-5.03-7.57-.67-.92-1.7-2.48-2.46-3.22-.14-.13-.13-.34-.43-.26v11.05h-2.77v-15.43Z"/>
    <path class="st0" d="M66.55,40.8h-3.08l-1.21-3.59-6.54-.07c-.55.19-.97,3.16-1.56,3.66h-2.7c-.01-.17,0-.33.03-.5.38-1.71,1.64-4.54,2.31-6.29,1.12-2.91,2.37-5.79,3.67-8.62.3-.38,2.58-.4,2.89,0,.51.65,1.34,2.89,1.74,3.79,1.65,3.8,3.03,7.73,4.44,11.62ZM61.46,34.97c-.56-1.8-1.19-3.64-1.93-5.37-.12-.28-.43-1.23-.77-1.23l-2.39,6.6h5.08Z"/>
    <path class="st0" d="M91.5,40.8c.61-2.29,1.49-4.57,2.35-6.79,1.13-2.91,2.36-5.79,3.67-8.62.39-.5,2.21-.15,2.89-.23,2.18,5.16,4.38,10.32,6.18,15.64h-3.08l-1.21-3.59-6.54-.07-1.56,3.66h-2.7ZM101.51,34.97c-.43-1.54-1.01-3.13-1.62-4.6-.16-.39-.74-1.99-1.07-2-.65,1.85-1.85,3.96-2.31,5.83-.07.26-.11.5-.08.77h5.08Z"/>
    <polygon class="st0" points="136.31 25.14 136.31 27.6 131.54 27.6 131.54 40.8 128.61 40.8 128.61 27.6 123.84 27.6 123.84 25.14 136.31 25.14"/>
    <polygon class="st0" points="78.25 25.14 78.25 27.6 73.32 27.6 73.32 40.8 70.55 40.8 70.55 27.6 65.78 27.6 65.78 25.14 78.25 25.14"/>
    <polygon class="st0" points="83.18 25.14 83.18 38.34 90.26 38.34 90.26 40.8 80.41 40.8 80.41 25.14 83.18 25.14"/>
    <rect class="st0" x="138.62" y="25.14" width="2.77" height="15.66"/>
    <path class="st4" d="M55.61,49.86v-3.99h.77v5.68l-.75-.02c-.73-1.56-1.81-2.99-2.95-4.27v4.3h-.77v-5.68c.48-.08.63.1.93.38,1.02.95,1.78,2.6,2.77,3.61Z"/>
    <path class="st4" d="M133.7,46.63l.02,1.51c.69.28,1.49.23,2.2.04l.24.75h-2.46v1.84h2.93v.77h-3.7v-5.68h3.31c.29,0,.29.77,0,.77h-2.54Z"/>
    <path class="st4" d="M112.9,45.87v2.46c.61-.26,2.57-3.03,3.23-2.46.07.29-.16.36-.31.54-.3.36-1.98,1.89-1.96,2.15.99.85,1.91,1.77,2.58,2.91,0,.13-.75.13-.89.04-.1-.06-1.11-1.47-1.49-1.81-.3-.27-.76-.67-1.16-.76v2.61h-.77v-5.68h.77Z"/>
    <path class="st4" d="M95.33,46.04l.02.75c-3.51-1.98-4.55,3.83-1.77,4.15.51.06,1.66-.29,1.86,0l.07.47c-5.77,2.07-5.79-7.22-.17-5.35Z"/>
    <polygon class="st0" points="154.02 45.87 154.02 50.7 154.26 50.93 156.64 50.93 156.64 51.55 153.49 51.55 153.25 51.32 153.25 46.1 154.02 45.87"/>
    <rect class="st4" x="73.48" y="45.87" width=".77" height="5.68"/>
  </g>
</svg>