<?xml version="1.0" encoding="UTF-8"?>
<svg id="Camada_1" xmlns="http://www.w3.org/2000/svg" version="1.1" viewBox="0 0 157.28 78.22">
  <!-- Generator: Adobe Illustrator 29.6.1, SVG Export Plug-In . SVG Version: 2.1.1 Build 9)  -->
  <defs>
    <style>
      .st0 {
        fill: #c4902e;
      }

      .st1 {
        fill: #fff;
      }

      .st2, .st3 {
        fill: none;
      }

      .st3 {
        stroke: #000;
        stroke-miterlimit: 6.52;
        stroke-width: 1.58px;
      }
    </style>
  </defs>
  <g>
    <path d="M104.32,54.43c0,2.2,1.92,3.62,4.42,3.62,2.23,0,4.38-1.42,4.38-3.62s-2.14-3.51-4.38-3.51-4.42,1.27-4.42,3.51M102.75,54.43c0-3.35,2.96-5.03,6-5.03s5.98,1.69,5.98,5.03-3.02,5.07-5.98,5.07-6-1.77-6-5.07Z"/>
    <path d="M128.65,57.74h4.02c2.13,0,3.43-1.61,3.37-3.41-.03-1.69-1.21-3.14-3.37-3.14h-4.02v6.55M127.06,49.6h5.83c2.64,0,4.73,2.14,4.75,4.8,0,2.54-1.68,4.92-4.75,4.92h-5.83v-9.72Z"/>
    <path d="M94.56,52.98h6v4.17c-1.8,1.54-4.18,2.34-6.53,2.36-4.12.05-7.25-2.84-7.25-6.32,0-4.25,3.85-6.12,7.48-6.14,1.89-.02,4.28.95,5.9,1.92l-.99,1.35c-1.56-.98-3.42-1.62-5.27-1.62-2.63,0-5.31,1.7-5.36,4.48-.06,2.14,1.87,4.75,5.53,4.71,2.93-.05,3.94-.75,4.85-1.67v-1.77h-4.36v-1.47"/>
    <polyline points="118.62 57.74 124.55 57.74 124.55 59.32 117.02 59.32 117.02 49.6 118.62 49.6 118.62 57.74"/>
    <polyline points="56.78 66.4 58.36 66.4 58.36 76.12 56.78 76.12 56.78 73.36 50.3 73.36 50.3 76.12 48.72 76.12 48.72 66.4 50.3 66.4 50.3 71.77 56.78 71.77 56.78 66.4"/>
    <polyline points="88.59 66.4 97.71 66.4 97.71 67.99 93.91 67.99 93.91 76.12 92.33 76.12 92.33 67.99 88.59 67.99 88.59 66.4"/>
    <line class="st3" x1="100.89" y1="76.12" x2="100.89" y2="66.4"/>
    <path d="M66.82,67.89l-2.03,3.88h4.09l-2.05-3.88M65.81,66.4h2.01l5.16,9.72h-1.79l-1.48-2.77h-5.75l-1.45,2.77h-1.8l5.11-9.72h0Z"/>
    <path d="M46.28,72.88c.14,2.55-2.76,3.44-4.82,3.4-3.36-.07-5.3-1.74-5.3-1.74l.9-1.32c2.99,2.29,7.71,1.75,7.58-.21-.08-1.23-2.22-1.12-3.09-1.16-.76-.03-1.4-.08-1.99-.2-1.91-.37-2.98-1.43-2.91-2.73.12-2.16,2.48-2.81,4.46-2.72,1.69.07,3.22.5,4.7,1.3l-.92,1.33c-2.66-1.62-6.49-1.5-6.52.11-.01.5.32.96,1.18,1.14,1.22.27,2.1.22,3.35.32,2.23.16,3.32,1.06,3.39,2.48"/>
    <path d="M28.14,66.31l-2.62,5.46h5.27l-2.65-5.46M27.47,64h1.31l5.9,12.12h-1.77l-1.35-2.77h-6.8l-1.31,2.77h-1.76l5.78-12.12Z"/>
    <polyline points="84.57 66.4 86.15 66.4 86.15 76.12 84.42 76.12 76.91 68.78 76.91 76.12 75.32 76.12 75.32 66.4 76.92 66.4 84.57 73.91 84.57 66.4"/>
    <path d="M27.73,49.51l-2.61,5.46h5.26l-2.65-5.46M27.07,47.2h1.31l5.89,12.12h-1.77l-1.34-2.77h-6.78l-1.33,2.77h-1.77s5.79-12.12,5.79-12.12Z"/>
    <path d="M56.35,54.18h4.94v3.44c-1.47,1.25-3.35,1.9-5.27,1.92-3.32.04-5.84-2.29-5.84-5.11,0-3.45,3.12-4.94,6.02-4.96,1.58-.01,3.48.78,4.82,1.59l-.9,1.22c-1.26-.79-2.7-1.21-4.21-1.21-2.05,0-4.12,1.23-4.15,3.37-.03,1.64,1.43,3.56,4.29,3.53,2.27-.03,3.17-.68,3.66-1.15v-1.04h-3.36v-1.58"/>
    <polyline points="65.44 57.74 71.39 57.74 71.39 59.32 63.86 59.32 63.86 49.6 65.44 49.6 65.44 57.74"/>
    <path d="M74.14,54.45c0,2.2,1.91,3.6,4.42,3.6,2.23,0,4.41-1.42,4.41-3.62s-2.17-3.51-4.41-3.51-4.42,1.29-4.42,3.52M72.58,54.45c0-3.34,2.96-5.03,5.98-5.03s6,1.69,6,5.03-3.02,5.07-6,5.07-5.98-1.77-5.98-5.07Z"/>
    <polyline points="46.02 49.6 47.6 49.6 47.6 59.32 45.88 59.32 38.35 51.98 38.35 59.32 36.76 59.32 36.76 49.6 38.36 49.6 46.02 57.11 46.02 49.6"/>
    <path d="M116.8,38.77s-.13,0-.27-.03c.62.2,1.4.43,1.39.52l-8.43-2.05c-.27.06-.44.07-.49.03l-.21-.15c-.07-.07-.35-.07-.86.03-.08.04-.39-.09-.93-.38-.22-.07-.62.07-.96.03l-2.39-.36-.23-.13-.7.03c-.12,0-.15-.14-.24-.16l-1.79-.1c-.08-.01-.15-.07-.22-.15l-1.14.1-2-.07s-.05-.03-.07-.12c-.01-.04-.16-.01-.21,0-.16.09-.46-.04-.41.06,2,.6,3.99.57,6.04.86,7.35.56,12.45,2.75,19.95,4.72-.08.05-.25.07-.53.06.82.29,2.6.95,2.45,1.01-.36.09-.68.11-.94.06-.32-.03-.74-.09-1.23-.2-.11-.04-.22-.11-.33-.23-.16,0-.35-.05-.55-.13l-.07-.1-.09-.06-.1-.03h-.11s-.14,0-.14,0h-.1l-.1.04s.08.04.13.05c.04.02.07.05.05.09-.04.04-.63-.2-1.5-.45-.12-.08.21-.21.14-.23-.31.05-.51.06-.59.03l-2.4-.59c-.13.03-.21.03-.25.01-.11-.09-.19-.14-.22-.14-.6-.13-1.02-.17-.95-.28.12-.07.2-.13.23-.2-.57.03-1.01.02-1.31-.04-.05-.09-.09-.2-.1-.32-.09,0-.41.18-.47.13l-.03-.1c-.01-.05-.02-.09-.04-.11-.03,0-.05.03-.08.06l-.02.1s-.03.06-.08.07c-.03-.03-.08-.07-.12-.14-.03-.02-.08-.03-.11-.03-.03.01-.07.04-.08.07-.01.03,0,.07.02.11,0,.04,0,.07-.01.1-.07.15-1.09-.13-3.02-.6l.26.16c.03.05.01.08-.04.1-.55-.1-1.2-.04-1.2-.17v-.1s-.04-.1-.04-.1c-.14-.02-.29-.02-.42.01-.05.05-.14.09-.25.13-.27,0-.58-.03-.91-.1-2.7-.99-6.64-1.52-9.48-1.56-1.3-.39-1.99-.55-2.09-.49-.04.04-.13.08-.25.11-.15.01-.56-.02-1.21-.11l-.08-.07-.23-.08h-.17l-.18.07-.05.08c-.01.08.18.14.15.21h-1.13c-3.87-.45-6.81-.39-8.32-.5l.08-.75.43-1.83c2.02-.78,2.99.05,5.45-.06h.45s.43.03.43.03l.41.03.38.03.35.06.29.13c.08.03.2,0,.37-.08l.32-.06.26-.04h.23s.16-.03.16-.03l.12.03.08.08,7.67,1.07c.07.05.12.13.15.24.22.05.41-.08.55-.04l.79.14,1.3.1s-.16.11-.2.03h-.04s-.07.04-.09.06c.02.02.04.05.09.07.03.02.07.03.11.03.15-.05.29-.07.39-.08.09-.02.32.04.64.13-.04-.03-.07-.06-.08-.08-.01-.03-.01-.06,0-.08.03-.01.07-.02.12-.03h.1s.13.04.13.04l.19.06.1.03s.06.03.09.06c0,.03-.13.04-.23.04-.03,0-.07.01-.1.03.01.05.04.09.1.13.45.08,1.24-.14,1.36.01,0,.05-.02.09-.05.13.01.04.03.06.05.08.03.01.09.02.15.03l.12-.02h.15c.29-.11.54-.18.76-.2.26-.02.58-.02.67.06.1.1.05.46.13.53.06,0,.1,0,.14,0,.03,0,.08-.01.11-.03.02-.03.03-.06.04-.08v-.1c-.05-.04-.11-.07-.18-.08l-.08-.04s-.07-.08-.09-.14c.04-.03.1-.05.16-.06.62.05,1.34.2,2.15.44.19.19-.2.42-.04.41.48-.15.79-.12,1.15-.13.33.07.76.26,1.3.59.01.03.01.06,0,.08.01.04.02.08.04.11.05-.01.09-.04.11-.07.02-.03.02-.07,0-.13.02-.02.05-.03.11-.04h.1c.05-.03.11-.04.14-.03.02.06.04.09.08.1.3,0,.46,0,.49.04-.03.05-.05.08-.04.11.04-.02.08-.05.11-.08.04-.04.08-.08.12-.1h.09s.08.02.11.06c.02.06.03.12.03.2,0,.05.01.09.02.13.04,0,.11,0,.2,0,.48.02.92.04.94.11.01.02.01.06-.03.11l.03.1.05.08c.06.01.1.04.12.09"/>
    <path d="M64.03,38.19c-1.33.54-2.58.1-3.76.94-.07.07-.14.13-.22.18-.09.05-.16.11-.23.2-.05.1-.11.18-.19.24-.04.07-.45.14-1.22.18-2.94.68-5.81,1.4-7.87,2.15-2.25.83-5.28,1.79-7.72,1.72-.41.02-1.31-1.04-1.62-1.01-.68,0-1.39-.08-2.15-.23l-.25-.13c-.7.16-1.23.23-1.6.23-.35-.09-.52-.19-.51-.32,1.43-1.23,3.45-1.38,5.16-1.95,3.88-.89,8.1-2.32,12.07-2.73.09-.05.13-.12.13-.21.09-.08.42-.1.97-.04l.13-.06.03-.1c.07-.14,1.32.07,1.32-.04.05-.14.11-.23.19-.25,2.25-.22,4.44-.83,6.69-1.1-.1.91.11,1.69.65,2.33"/>
    <path d="M77.71,37.27h-.09s-1.17-.06-1.17-.06c-1.92-.03-3.44.05-5.25.23l-1.74.14.09-1.79-.43-.66.27-.03.52-.08.49-.08c1.36-.29,2.01-.31,3.11-.43,1.11-.12,2.43-.19,3.38.03l.02.11c.75.25,1.09.59,1.32,1.22l-.53,1.4"/>
    <path class="st1" d="M116.53,38.74l-.11-.08-.09-.04-.08-.03h-.1s-.03.06-.03.1c0,.03.01.06.03.08.13.01.26,0,.37-.03"/>
    <g>
      <path class="st0" d="M81.81,6.11c-1-.96-1.89-.87-2.81-1.44-.58-.81-.26-2.68.85-3.32.19-.17.36-.28.54-.34.23-.06.49-.06.77,0,1.54.01,1.75.75,2.58,1.72,1.33,1.36,3.04,1.64,4.55,3.26,2.75,2.99,4.4,6.96.59,9.67-.54.46-1.02,1.11-1.46,1.94-.02.09-.1.45-.11.54.14.64.21,1.32.2,2.03-.05.31-.14.58-.26.81l-.08.31c-.08.25-.39.35-.41.49v.08c-.01.08-.04.16-.1.23l-.09.08c-.09.25-.2.43-.39.7-.04.05-.15.07-.2.11-.01.02-.02.04-.02.07v.05c-.02.05-.04.09-.07.11-.02.01-.03.01-.05,0-.01-.02-.03-.04-.07-.05-.04.02-.1.05-.16.11l-.02.06-.05.08c-.11.23-.27.41-.48.53-.13.04-.43.17-.45.18-.32.26-.69.46-1.11.62l-.61.18s-.09,0-.13,0c-.02-.02-.05-.03-.08-.03-.13.06-.23.15-.31.26-.03.08-.72.23-.78.15l-.03-.03c-.08-.01-.13,0-.18.03l-.05.11s-.05,0-.08-.03c-.12-.09-.26-.09-.43-.02l-.32-.15c-.19-.17.65-.63,1.2-.92.86-.94.94-1.91.94-1.91.98-2.31-.47-4.55.14-6.37l.39-.96.85-1.47.33-.64.3-.64v-.29s.01-.26.01-.26v-.03s-.01-.02-.01-.02c.05-.75-.49-2.32-.91-2.93-.14-.28.07-.43.3-.82.07-.08.15,0,.25-.09.39-.34.87-1.48-.39-2.49-.11-.09-.47-.14-.77.1-.05.05-.58,1.35-1.32.66"/>
      <path class="st0" d="M75.21,21.33c-.42,2.34-.67,5.03-.1,7.39.02.42-.04.59.14,1.04.72,2.03,1.65,3.75,3.14,5.32.18-.02.3-.12.37-.31.07-.59.2-1.03.41-1.3.08-.05.15-.08.23-.08.26-1.13.56-2.32.37-3.49-.03-.39-.19-.85-.24-1.23l-.03-.18v-.11s.03-.11.03-.11l.04-.05.05-.02.1.02.79,2.34-.03,1.07.11.2.12.65-.03.89.03.94-.02.2c-.02.96-.82,1.68-1.09,2.58l-.39.89-.34.92-.16.19-.11,1.12.14.2-.03.45.04.06c.13.6.76,1.01,1.26.51.26-1.01-.64-1.55-.19-2l.22.05.26.13.26.21.19.23.13.23.1.24v.24l-.04.26-.13.26-.16.29-.39.36-.22.16-.11.06-.1.08v.03c-.51.03-.72,0-1.2-.24-.68-.42-.62-.67-.99-1.14-.21-.27-.44-.64-.45-.99l-.02-.36.02-.39.08-.37.23-.49.22-1.22.13-.34c.19-.36.31-1.03,0-1.36-.85-.62-1.46-1.11-2.17-1.9-1.44-1.59-2.06-3.23-2.45-5.3-.05-.25-.1-.49-.11-.73.01-.33-.01-.57-.08-.71-.63.05-1.04.13-1.27.23-.13.06-.24.16-.31.29-.04.18-.04.39,0,.65.05.05.09.12.12.21,0,.06-.01.13-.03.21-.04.63-.39,1.9-.7,2.4-.41.84-.84,1.31-1.44,2l-.47.45v.31s.1.32.1.32l.08.29c.32.71.46.84,1.02,1.36.68.58.8,1.66.53,2.47-.04.2-.96.3-1.49.3-.47,0-1.04-.15-1.7-.24-.13-.03-.14-.07-.02-.11l.14-.03.13-.07.13-.05.1-.08.1-.06.03-.05.04-.03.1-.06v-.07c.27-.38.22-.46.26-.91.09-.13.21-.19.37-.18.26.18.34.59.48.6.04-.21.09-.08.08-.31h.02v-.11h.01c-.1-1.2-.94-1.64-1.39-2.68-.92-1.65,1.43-3.2,1.9-5.56.11-.57-.12-1.26.18-1.86l.15-.39.21-.34.21-.31.26-.28.25-.24.31-.21.33-.18.37-.15,1.23-.15c.61-1.29.48-3.21,1.21-5.14.08-.01.15.13.23.44.2.61.29,1.25.29,1.92"/>
      <path class="st0" d="M88.19,21.33l-.14.39v3.21s.37,2.33.37,2.33v.39s-.03.2-.03.2v.21l-.03.39c-.07,1.08-.46,2.41-.96,3.39-.68,1.34-1.6,2.14-2.08,3.62-.58.67-.7,1.66-.41,2.48h-.01l-.03.02v.05l.15.28.07.13.03.07.02.03.03.05.11.26c.18.38.24.8.26,1.22l-.06.19-.04.19-.03.03-.02.02v.03l-.03.1-.11.2-.14.16-.16.16-.1.07-.04.03-.03.05-.12.06-.09.08v.03c-.43.3-.9.5-1.42.6-.19-.13-.24-.3-.16-.49.21-.13.37-.26.51-.41.34-.39.51-.66.61-1.05-.01-1.43-.61-4.68.01-5.9.19-.32.72-1.33.68-1.7h.02l.03-.1.03-.42.34-.52.31-.52.29-.53.27-.52.23-.55c.47-1.17.76-2.09.91-3.36.1-.78.09-1.57.08-2.35l-.03-.58-.03-.37.07-.36.13-.44.14-.39.16-.34.2-.29v-.05l.04-.02c.15.08.22.26.21.55"/>
      <path class="st0" d="M83.07,41.12c-.48.39-.85.57-1.38.83.01.03.01.05,0,.07-.04.02-.12.02-.23.03-.11,0-.18-.03-.19-.1v-.11c.02-.07.08-.14.16-.2l.08-.1.1-.08.29-.39.02-.11v-.1c-.03-.16-.03-.27,0-.34.03-.01.07-.01.1,0-.01-.05-.01-.09,0-.11.01-.05.01-.16,0-.31,0-.01.01-.03.03-.03.02,0,.03,0,.04,0,.01-.03.01-.05.02-.06v-.02s.01-.11.01-.11c-.02-.12-.02-.23,0-.32.03-.01.07-.02.1-.02.03,0,.07.02.1.05h.01l.02.05s.07.07.13.11c.05.04.1.09.14.15.09.18.34.2.42.58.05.22.11.44.02.65"/>
      <path class="st0" d="M65.21,34.26c.03.14-.41.47-.42.65.31.83.61,1.88.59,2.45,0,.08-.04.1-.08.11-.09.05-.16.11-.22.19-.1.49-.22.78-.36.88-.29-.04-.61-.18-.94-.42l-.18-.19-.13-.21-.12-.24-.08-.24-.07-.31v-.31s-.01-.34-.01-.34l.04-.35.05-.05c.51-.5.93-1.57,1.37-1.72.25-.07.46-.03.54.11"/>
      <path class="st0" d="M66.54,35.91c.12-.19.16-.3.35-.1l.07.1.05.16.07.19.04.2.07.23.03.03c.19.24.08.56.08.83v.07s-.03.06-.03.06l-.04.03-.03.05-.07.02-.07.02c-.59-.12-.86.29-1.22.23-.05-.01-.05-.03,0-.07l.13-.11.09-.1.1-.08.05-.11.09-.1.11-.23v-.23c-.03-.14-.03-.25,0-.31.05-.04.1-.04.13,0l.02-.08v-.03c0-.06,0-.1-.02-.12-.02.01-.04.01-.07,0-.03-.04-.06-.12-.04-.23,0-.09,0-.16-.02-.21.03-.03.07-.03.13,0v-.11"/>
      <path class="st0" d="M78.12,3.24l-.09-.03c-.49,0-.7.18-.99.58-.59,1.26-1.77,1.93-2.48,3.5-.25.44-.41.81-.47,1.1-.08.61.15,1.2.45,1.72.09.25.18.48.21.7.32,1.71-.7,2.64.56,4.37,1.26,1.74,3.34,4.55,3,6.42l-.02.23-.1.2-.07.21s-.13.03-.14.24c0,.2.08.49-.21,1.03-.11.14-.24.17-.39.09-.1-.17-.1-.4-.02-.7.13-.09.12-.15.22-.32.09-.16,0-.53,0-.53-.59-2.95-4.01-3.83-4.4-6.99-.42.43-1.2,1.02-2.28,1.63-2.48,1.88-3.12,5-3.54,7.91-.02.53-.08.94-.14,1.22-.1.3-.23.52-.37.65h-.03l-.03.03v.28c-.08.16-.19.31-.34.47-.15.14-.34.28-.56.42-.09.12-.13.31-.15.55l-.16.28v.03l.05.07v.08l-.05.03-.12.05h-.1c-.11.1-.2.21-.24.34-.08.08-.35.15-.36.23-.02.14-.05.26-.13.37-.05.03-.12.03-.19.02l-.15.08-.37.18-.34.21-.29.15s-.03,0-.05,0l-.03.02-.07.03s-.08.05-.12.06l-.16.03h-.05l-.03.02-.07.03c-.09.03-.19.05-.29.06-.38.05-.97.07-1.76.08-.12-.04-.23-.11-.33-.21-.05-.05-.12-.08-.19-.1-.07-.02-.11-.04-.16-.06-.06-.02-.14-.06-.24-.11-.07-.04-.14-.09-.21-.15-.05-.04-.13-.09-.21-.16-1.02-1.18-1.22-2.93.32-3.89v-.08s0-.03,0-.03l.02-.11.07-.07.08-.05h.14c.45.03.92-.05,1.21.37.16.01.33.05.47.11.23.19.32.7.01,1.01-.36.35-.85.54-1.24.87-.4.25-.55.09-.64.33-.09.42-.02.74.29,1.05.3.32.65.53,1.09.49.15.06.27.07.36.05.05-.13.13-.23.24-.31.12-.07.42-.16.88-.26.15-.03.27-.08.37-.15.21-.14.41-.25.59-.34.19-.12.37-.3.57-.52l.03-.03s.04-.02.07-.02c.05-.05.1-.09.13-.13.03-.05.08-.09.12-.13.04-.05.08-.1.1-.15.03-.05.07-.09.12-.13.03-.06.07-.11.08-.16.02-.06.04-.11.08-.16.01-.03.02-.07.02-.1.01-.03.02-.06.03-.08.02-.05.04-.1.07-.16,1.09-4.37-.52-6.96,2.14-10.25.68-.9,2.33-1.84,3.41-2.21.59-.16,1.11-.19,1.71-.08.46.01.41-.05.74-.23-.57-2.57,0-1.8-1.66-3.87-.22-.26-.39-.53-.48-.81-.7-2.71,1.75-3.34,3.39-4.92.82-.58,1.93-1.96,2.87-2.16l.29-.02.32.05.22.08.21.11.1.1.05.11v.13c-.01.07-.06.1-.14.08"/>
      <path class="st0" d="M76.72,7.03c.13.16-.8,1.31-.8,1.48-.04.04-.1.06-.16.06-.09-.25.1-.66.04-.74-.1-.14-.31-.02-.33-.23-.11-.12-.26-.17-.23-.35.05-.34,1.18-.59,1.48-.22"/>
      <path class="st0" d="M81.23,7.2l-.11.08c.05.09-.08.12-.03.25-.07.22-.4.34-.53.32-.13.01-.43.53-1.08.28-.31-.03-.43.51-.86.48-.18-.02.11-.31.12-.45.22-.32.35-.63.49-.93.08-.08.14-.12.22-.13.34-.02.66-.03,1.08.08.05.02.08.03.14.05.1.01.13-.05.19-.08.12-.08.26-.14.36.05"/>
      <path class="st0" d="M77.52,9.12c.34.37.9-.24.94.15.04.18-.76.57-.9.54-.07.03-.3.21-.4.23-.33.21-.27.63-.36.85.01.25.34.31.51.46.33.23.61.92,1.12.8.52-.05.7-.21,1.11-.12-.02.2.22-.03.29.16.1-.05.1.12.17.17.01.15-.23.29-.37.32-.38.14-.65.24-1.08.1-.48.11-.79-.37-1.19-.55-.13-.16-.31-.24-.46-.32-.15-.11-.23-.06-.44.03-.52.23-.7.67-.98.52.03-.33.14-.55.57-1.01.11-.12.43-.18.43-.52-.02-.25-.27-.79-.3-.86-.14-.09-.1-.2-.21-.3-.7-.49-.54-.69-.39-.75.39-.01,1.24-.32,1.92.08"/>
      <path class="st0" d="M78.81,13.77l1.12-.47c.16.02-.32.46-.42.67-.29.4-.64.49-1.1.84-.07.13-.22.21-.14.48-.08.17-.14.28-.22.31-.15.08-.82-.25-.97-.43-.37-.49-.59-.62-.88-.9-.15-.17-.26-.38-.3-.61,0-.04.02-.05.05-.05l.34.17,1.04.19c.36.05,1.16-.04,1.46-.2"/>
    </g>
  </g>
  <rect class="st2" width="157.28" height="78.22"/>
</svg>