<?xml version="1.0" encoding="UTF-8"?>
<svg id="Camada_1" xmlns="http://www.w3.org/2000/svg" version="1.1" viewBox="0 0 943.9 285.72">
  <!-- Generator: Adobe Illustrator 29.6.1, SVG Export Plug-In . SVG Version: 2.1.1 Build 9)  -->
  <defs>
    <style>
      .st0 {
        fill: #fff;
      }
    </style>
  </defs>
  <path class="st0" d="M399.08,156.73c0,2.42-.31,4.59-.92,6.53-.61,1.93-1.42,3.64-2.43,5.11-1.01,1.48-2.18,2.73-3.53,3.77-1.35,1.04-2.75,1.88-4.19,2.54-1.45.66-2.91,1.15-4.41,1.46-1.49.31-2.9.47-4.22.47h-47.26v-12.25h47.26c2.36,0,4.19-.69,5.49-2.07,1.3-1.38,1.96-3.24,1.96-5.56,0-1.13-.17-2.17-.52-3.11-.35-.94-.84-1.76-1.48-2.45-.64-.69-1.43-1.23-2.36-1.6-.93-.38-1.96-.57-3.09-.57h-28.18c-1.98,0-4.12-.35-6.41-1.06-2.29-.71-4.42-1.84-6.38-3.42-1.96-1.57-3.6-3.63-4.9-6.17-1.3-2.54-1.96-5.65-1.96-9.33s.65-6.78,1.96-9.31c1.3-2.53,2.94-4.59,4.9-6.17,1.96-1.59,4.09-2.73,6.38-3.44,2.29-.71,4.43-1.06,6.41-1.06h41.7v12.25h-41.7c-2.33,0-4.14.71-5.44,2.12-1.3,1.41-1.96,3.28-1.96,5.61s.65,4.22,1.96,5.58c1.3,1.37,3.12,2.05,5.44,2.05h28.27c1.32.03,2.72.21,4.19.54,1.48.33,2.94.84,4.41,1.53,1.46.69,2.85,1.56,4.17,2.61,1.32,1.05,2.49,2.32,3.51,3.79,1.02,1.48,1.83,3.17,2.43,5.09.6,1.92.9,4.08.9,6.5Z"/>
  <path class="st0" d="M423.54,176.61h-12.25v-67.57h12.25v67.57Z"/>
  <path class="st0" d="M506.47,170.44c0,.88-.16,1.7-.47,2.45-.31.75-.75,1.41-1.3,1.95-.55.55-1.2.98-1.96,1.3-.75.31-1.57.47-2.45.47h-44.2c-1.13,0-2.35-.13-3.65-.4-1.3-.27-2.59-.68-3.86-1.25s-2.49-1.3-3.65-2.19c-1.16-.9-2.19-1.98-3.09-3.25s-1.61-2.75-2.14-4.43c-.53-1.68-.8-3.57-.8-5.68v-33.17c0-1.13.13-2.35.4-3.65.27-1.3.68-2.59,1.25-3.86s1.3-2.49,2.21-3.65c.91-1.16,2-2.19,3.27-3.09s2.74-1.61,4.41-2.14c1.66-.53,3.55-.8,5.65-.8h49.81v12.25h-49.81c-1.6,0-2.83.42-3.68,1.27-.85.85-1.27,2.1-1.27,3.77v33.08c0,1.57.43,2.79,1.3,3.65.86.86,2.08,1.3,3.65,1.3h38.12v-15.36h-32.61v-12.35h38.69c.88,0,1.7.16,2.45.49s1.41.78,1.96,1.34c.55.57.98,1.22,1.3,1.95.31.74.47,1.53.47,2.38v27.61Z"/>
  <path class="st0" d="M582.23,176.61h-44.2c-1.7,0-3.55-.3-5.56-.9-2.01-.6-3.87-1.58-5.58-2.94-1.71-1.37-3.14-3.14-4.29-5.32-1.15-2.18-1.72-4.86-1.72-8.03v-44.2c0-.85.16-1.65.47-2.4.31-.75.75-1.41,1.3-1.98.55-.57,1.2-1,1.96-1.32.75-.31,1.57-.47,2.45-.47h55.18v12.25h-49.1v38.12c0,1.6.42,2.83,1.27,3.68.85.85,2.09,1.27,3.72,1.27h44.1v12.25ZM576.72,149h-38.69v-12.35h38.69v12.35Z"/>
  <path class="st0" d="M656.07,176.61h-44.2c-1.13,0-2.35-.13-3.65-.4-1.3-.27-2.59-.68-3.86-1.25s-2.49-1.3-3.65-2.19c-1.16-.9-2.19-1.98-3.09-3.25s-1.61-2.75-2.14-4.43c-.53-1.68-.8-3.57-.8-5.68v-33.17c0-1.13.13-2.35.4-3.65.27-1.3.68-2.59,1.25-3.86s1.3-2.49,2.21-3.65c.91-1.16,2-2.19,3.27-3.09s2.74-1.61,4.41-2.14c1.66-.53,3.55-.8,5.65-.8h44.2v12.25h-44.2c-1.6,0-2.83.42-3.68,1.27-.85.85-1.27,2.1-1.27,3.77v33.08c0,1.57.43,2.79,1.3,3.65.86.86,2.08,1.3,3.65,1.3h44.2v12.25Z"/>
  <path class="st0" d="M789.18,109.04l-11.31,63.33c-.25,1.26-.82,2.34-1.7,3.25-.88.91-1.95,1.49-3.2,1.74-1.29.22-2.51.08-3.65-.42-1.15-.5-2.05-1.29-2.71-2.36l-22.43-36.85-22.48,36.85c-.53.91-1.26,1.62-2.19,2.12-.93.5-1.92.75-2.99.75-1.48,0-2.78-.47-3.91-1.41s-1.82-2.17-2.07-3.68l-11.4-63.33h12.44l8.1,44.62,19.32-30.82c.53-.91,1.26-1.62,2.19-2.12.93-.5,1.92-.75,2.99-.75s2.06.25,2.97.75c.91.5,1.66,1.21,2.26,2.12l19.22,30.82,8.1-44.62h12.44Z"/>
  <path class="st0" d="M862.64,176.61h-44.2c-1.7,0-3.55-.3-5.56-.9-2.01-.6-3.87-1.58-5.58-2.94-1.71-1.37-3.14-3.14-4.29-5.32-1.15-2.18-1.72-4.86-1.72-8.03v-44.2c0-.85.16-1.65.47-2.4.31-.75.75-1.41,1.3-1.98.55-.57,1.2-1,1.96-1.32.75-.31,1.57-.47,2.45-.47h55.18v12.25h-49.1v38.12c0,1.6.42,2.83,1.27,3.68.85.85,2.09,1.27,3.72,1.27h44.1v12.25ZM857.12,149h-38.69v-12.35h38.69v12.35Z"/>
  <path class="st0" d="M943.82,161.77c0,1.51-.26,3.13-.78,4.85-.52,1.73-1.37,3.33-2.54,4.81s-2.71,2.71-4.59,3.7c-1.88.99-4.19,1.48-6.93,1.48h-46.51c-.88,0-1.7-.16-2.45-.47-.75-.31-1.41-.75-1.96-1.3-.55-.55-.98-1.2-1.3-1.95-.31-.75-.47-1.57-.47-2.45v-55.22c0-.85.16-1.65.47-2.4.31-.75.75-1.41,1.3-1.98.55-.57,1.2-1,1.96-1.32.75-.31,1.57-.47,2.45-.47h40.99c1.51,0,3.13.27,4.85.8,1.73.53,3.34,1.39,4.83,2.57,1.49,1.18,2.73,2.71,3.72,4.59s1.48,4.19,1.48,6.93v2.31c0,2.17-.36,4.5-1.08,7-.72,2.5-1.88,4.86-3.49,7.09,1.38.85,2.68,1.87,3.89,3.06,1.21,1.19,2.27,2.58,3.18,4.15.91,1.57,1.63,3.35,2.17,5.32.53,1.98.8,4.16.8,6.55v2.36ZM931.57,159.41c0-1.6-.25-3.04-.75-4.31-.5-1.27-1.21-2.36-2.12-3.27-.91-.91-2.01-1.61-3.3-2.1-1.29-.49-2.73-.73-4.34-.73h-27.61v-12.35h22.1c1.6,0,3.05-.24,4.33-.73,1.29-.49,2.39-1.19,3.3-2.1.91-.91,1.61-2,2.1-3.27.49-1.27.73-2.71.73-4.31v-2.31c0-1.76-.85-2.64-2.54-2.64h-34.92v43.07h40.43c.22,0,.49-.02.8-.05.31-.03.6-.13.85-.28.25-.16.47-.42.66-.8s.28-.9.28-1.56v-2.26Z"/>
  <path class="st0" d="M142.99,285.85C64.14,285.85,0,221.7,0,142.86S64.14-.13,142.99-.13s142.99,64.14,142.99,142.99-64.14,142.99-142.99,142.99ZM142.99,9.67C69.55,9.67,9.8,69.42,9.8,142.86s59.75,133.19,133.19,133.19,133.19-59.75,133.19-133.19S216.43,9.67,142.99,9.67Z"/>
  <path class="st0" d="M117.93,80.03v11.24c-6.76-2.69-14.01-4.07-21.25-4.07-14.58,0-29.15,5.54-40.31,16.69l27.12,27.12h9.04v9.04c7,7,16.12,10.67,25.33,11.07v18.48h-24.35v24.43c0,8.96,7.33,16.29,16.29,16.29h81.43c13.52,0,24.43-10.91,24.43-24.43v-105.86h-97.72ZM108.89,132.22v-17.51h-18.57l-8.47-8.47c4.64-1.79,9.69-2.77,14.82-2.77,10.91,0,21.09,4.23,28.83,11.89l11.48,11.48-1.63,1.63c-4.15,4.15-9.69,6.51-15.63,6.51-3.83,0-7.57-.98-10.83-2.77ZM199.36,185.89c0,4.48-3.66,8.14-8.14,8.14s-8.14-3.66-8.14-8.14v-16.29h-48.86v-21.09c4.64-1.87,8.96-4.64,12.7-8.39l1.63-1.63,23.05,22.96h11.48v-11.48l-48.86-48.61v-5.05h65.14v89.57Z"/>
</svg>