<?xml version="1.0" encoding="UTF-8"?>
<svg id="Camada_1" xmlns="http://www.w3.org/2000/svg" version="1.1" xmlns:xlink="http://www.w3.org/1999/xlink" viewBox="0 0 157.28 78.22">
  <!-- Generator: Adobe Illustrator 29.6.1, SVG Export Plug-In . SVG Version: 2.1.1 Build 9)  -->
  <defs>
    <style>
      .st0 {
        fill: #fff;
      }

      .st1 {
        fill: none;
      }

      .st2 {
        fill: url(#Gradiente_sem_nome_6);
      }

      .st3 {
        clip-path: url(#clippath);
      }
    </style>
    <clipPath id="clippath">
      <rect class="st1" x="15.55" y="14.76" width="126.18" height="48.7"/>
    </clipPath>
    <linearGradient id="Gradiente_sem_nome_6" data-name="Gradiente sem nome 6" x1="37.55" y1="1858.51" x2="37.55" y2="1907.23" gradientTransform="translate(0 1922) scale(1 -1)" gradientUnits="userSpaceOnUse">
      <stop offset="0" stop-color="#8a690e"/>
      <stop offset="1" stop-color="#d09b18"/>
    </linearGradient>
  </defs>
  <rect class="st1" width="157.28" height="78.22"/>
  <g class="st3">
    <g>
      <path class="st2" d="M59.56,47.86v-17.47c0-2.46-1.3-4.72-3.44-5.96l-15.12-8.74c-2.12-1.22-4.75-1.22-6.89,0l-15.12,8.74c-2.14,1.22-3.44,3.51-3.44,5.96v17.47c0,2.46,1.3,4.72,3.44,5.96l15.14,8.74c2.12,1.24,4.75,1.24,6.89,0l15.14-8.74c2.1-1.24,3.4-3.51,3.4-5.96Z"/>
      <path class="st0" d="M40.6,37.3s-1.51-.02-1.51,1.41,1.51,1.43,1.51,1.43h5.59c.61,0,1.11.5,1.11,1.11v5.29c0,.61-.48,1.09-1.09,1.11-2.71.06-9.74.19-12.43-.02-3.07-.23-7.85-2.73-7.85-9.41,0-4.41,4.12-8.9,8.06-8.9h12.43c.61,0,1.09.48,1.11,1.09l.02.59c.02.63-.48,1.13-1.11,1.13h-12.35c-1.55,0-5.67,1.57-5.67,6.07,0,6.01,5.02,6.85,5.71,6.93h9.97s1.34.04,1.34-1.45c0-1.36-1.34-1.47-1.34-1.47h-9.89c-.48-.06-2.96-.57-2.96-3.78s2.48-3.59,2.96-3.65c.04,0,.1-.02.15-.02h14.7c.61,0,1.11-.5,1.11-1.11v-5.75c0-.61-.5-1.11-1.11-1.11-3.53,0-14.3-.04-15.52-.04-4.35-.04-10.54,4.98-10.54,11.23,0,9.76,6.4,12.56,10.54,12.81,3.38.21,12.35.08,15.48.02.61-.02,1.09-.5,1.09-1.11v-11.19c0-.61-.5-1.11-1.11-1.11l-8.4-.08Z"/>
      <path d="M72.39,37.4h-1.13l6.76-10.54h2.41v11.74h-2.41v-8.53l.59.17-5.4,8.36h-2.71l-5.4-8.34.59-.17v8.5h-2.41v-11.74h2.41l6.7,10.54Z"/>
      <path d="M83.54,26.86h2.41v11.74h-2.41s0-11.74,0-11.74Z"/>
      <path d="M100.99,36.2l-.76.31v-9.66h2.41v11.74h-2.41l-9.49-9.28.76-.31v9.58h-2.41v-11.72h2.41l9.49,9.34Z"/>
      <path d="M105.78,26.86h2.41v11.74h-2.41s0-11.74,0-11.74Z"/>
      <path d="M123.23,36.2l-.76.31v-9.66h2.41v11.74h-2.41l-9.49-9.26.76-.31v9.58h-2.41v-11.74h2.41l9.49,9.34Z"/>
      <path d="M134.42,38.85c-1.09,0-2.08-.13-2.94-.38-.88-.25-1.64-.63-2.27-1.13-.63-.5-1.11-1.13-1.47-1.89-.34-.76-.5-1.62-.5-2.6s.17-1.87.52-2.65c.36-.78.86-1.43,1.53-1.95.65-.52,1.45-.94,2.35-1.22.9-.27,1.93-.4,3.04-.4,1.32,0,2.46.19,3.4.55.94.36,1.7.88,2.27,1.55.55.67.86,1.45.94,2.37h-2.33c-.17-.48-.42-.9-.78-1.26-.36-.36-.82-.63-1.41-.84-.59-.21-1.28-.29-2.1-.29-1.05,0-1.95.17-2.69.5-.73.34-1.3.82-1.7,1.43-.4.61-.59,1.34-.59,2.18s.17,1.51.5,2.1c.34.59.86,1.03,1.57,1.34s1.62.46,2.71.46c.84,0,1.6-.1,2.25-.34.65-.23,1.2-.53,1.62-.9.42-.38.74-.8.92-1.28l.94-.36c-.17,1.55-.76,2.77-1.76,3.65-1.01.9-2.37,1.34-4.05,1.34ZM139.63,38.6c0-.38.02-.8.06-1.3.04-.48.11-.99.19-1.49.08-.5.15-.97.21-1.39h-5.38v-1.53h7.01v5.71h-2.1Z"/>
      <path d="M66.7,50.86l-3.59-8.11h1.85l3.07,7.31h-.57l3.07-7.31h1.81l-3.55,8.11h-2.08Z"/>
      <path d="M75.21,47.48v1.99h6.26v1.39h-7.92v-8.11h7.9v1.39h-6.24v2.02h5.1v1.32h-5.1Z"/>
      <path d="M91.4,49.22l-.52.21v-6.66h1.66v8.11h-1.66l-6.55-6.4.53-.21v6.61h-1.66v-8.11h1.66l6.55,6.45Z"/>
      <path d="M93.75,42.78h8.53v1.39h-8.55v-1.39h.02ZM97.19,43.97h1.66v6.89h-1.66v-6.89Z"/>
      <path d="M110.92,47.29v-4.51h1.66v4.7c0,.52-.08,1.01-.23,1.41-.15.4-.38.73-.65,1.01-.29.27-.61.5-.99.67s-.8.29-1.24.38c-.44.08-.92.1-1.41.1s-.99-.04-1.45-.1c-.46-.06-.88-.19-1.26-.38-.38-.19-.71-.4-.99-.67-.27-.27-.48-.61-.65-1.01-.15-.4-.23-.86-.23-1.41v-4.7h1.66v4.51c0,.63.13,1.11.38,1.45.25.34.59.55,1.03.67.44.13.94.19,1.49.19s1.03-.06,1.47-.19c.42-.13.78-.34,1.03-.67.25-.34.38-.82.38-1.45Z"/>
      <path d="M114.54,50.86v-8.11h5.5c.63,0,1.18.08,1.64.25.46.17.82.44,1.09.8.27.36.38.82.38,1.39,0,.38-.06.71-.21.97-.13.27-.31.48-.55.65-.23.17-.5.29-.82.38-.32.08-.63.15-.99.17l-.17-.1c.59,0,1.07.06,1.45.15.38.08.65.25.84.48.19.23.27.57.27,1.03v1.93h-1.66v-1.81c0-.31-.06-.55-.17-.71-.1-.17-.29-.29-.59-.36-.27-.06-.67-.1-1.22-.1h-3.15v2.98l-1.66.02ZM116.19,46.58h3.82c.46,0,.82-.1,1.07-.34.25-.23.38-.52.38-.92s-.13-.65-.38-.84c-.25-.19-.61-.29-1.07-.29h-3.82v2.39Z"/>
      <path d="M126.55,47.48v1.99h6.26v1.39h-7.92v-8.11h7.89v1.39h-6.24v2.02h5.1v1.32h-5.1Z"/>
      <path d="M133.96,48.13h1.68c.04.29.17.55.4.78.23.23.52.4.9.55.38.13.8.19,1.26.19.42,0,.78-.04,1.05-.15s.48-.23.61-.4c.13-.17.21-.38.21-.61s-.08-.4-.25-.52c-.17-.13-.42-.23-.8-.29-.36-.08-.84-.17-1.41-.25-.46-.06-.88-.17-1.3-.27-.42-.1-.78-.27-1.09-.46-.31-.19-.57-.42-.73-.71-.17-.27-.27-.61-.27-.99,0-.48.15-.9.4-1.26.27-.36.67-.63,1.22-.84.52-.21,1.2-.29,1.97-.29,1.18,0,2.06.25,2.71.76.63.5.94,1.18.92,2.06h-1.64c-.04-.48-.23-.84-.63-1.07-.38-.21-.86-.34-1.43-.34-.52,0-.97.08-1.32.23-.36.17-.52.44-.52.82,0,.15.04.27.13.4.08.1.23.21.42.29.21.08.46.17.82.23.34.08.78.15,1.28.23.48.06.9.15,1.3.27.4.13.71.25,1.01.44.27.19.5.4.65.67s.23.61.23,1.01c0,.5-.13.92-.38,1.28-.25.36-.65.65-1.18.84-.52.21-1.22.29-2.06.29-.61,0-1.13-.06-1.6-.19-.46-.13-.86-.29-1.2-.52-.34-.23-.61-.46-.82-.71-.21-.25-.36-.52-.44-.78-.08-.25-.13-.44-.1-.67Z"/>
    </g>
  </g>
</svg>