<?xml version="1.0" encoding="UTF-8"?>
<svg id="Camada_1" xmlns="http://www.w3.org/2000/svg" version="1.1" xmlns:xlink="http://www.w3.org/1999/xlink" viewBox="0 0 157.28 78.22">
  <!-- Generator: Adobe Illustrator 29.6.1, SVG Export Plug-In . SVG Version: 2.1.1 Build 9)  -->
  <defs>
    <style>
      .st0 {
        fill: #5a5c61;
      }

      .st1 {
        fill: url(#Gradiente_sem_nome_5);
      }

      .st2 {
        fill: url(#Gradiente_sem_nome_2);
      }

      .st3 {
        fill: #fff;
      }

      .st4 {
        mask: url(#mask);
      }

      .st5 {
        fill: none;
      }

      .st6 {
        clip-path: url(#clippath-1);
      }

      .st7 {
        fill: #00ace2;
      }

      .st8 {
        clip-path: url(#clippath-2);
      }

      .st9 {
        clip-path: url(#clippath);
      }
    </style>
    <clipPath id="clippath">
      <rect class="st5" x="27.96" y="8.26" width="101.37" height="61.7"/>
    </clipPath>
    <clipPath id="clippath-1">
      <path class="st5" d="M109.58,8.26c-1.92,0-3.79.38-5.55,1.12-1.7.72-3.22,1.75-4.53,3.05s-2.34,2.83-3.05,4.53c-.26.62-.48,1.25-.65,1.9-.2.09-.4.17-.6.26-4.06,1.87-6.33,4.45-6.41,7.28-1.55.37-2.83.79-3.82,1.24-.79.36-1.39.74-1.84,1.15-.74.69-.89,1.39-.89,1.85s.15,1.15.89,1.85c.44.41,1.04.79,1.84,1.15,1.4.63,3.37,1.2,5.86,1.68,4.75.91,10.95,1.43,17.61,1.49v18.72h1.16c2.79,0,5.41-1.14,7.38-3.11,1.28-1.28,2.19-2.87,2.67-4.57.1-.04.19-.1.29-.14,2.93-1.35,4.59-3.23,4.73-5.31,1.01-.25,1.85-.53,2.52-.83,1.41-.63,2.13-1.44,2.13-2.39s-.72-1.76-2.13-2.39c-1.02-.45-2.44-.86-4.23-1.2-3.31-.63-7.65-.99-12.23-1.04V8.26h-1.15ZM101.12,14.05c1.99-1.99,4.61-3.19,7.32-3.45v5.78c-3.54.09-6.94.61-9.89,1.5.59-1.41,1.46-2.71,2.57-3.82M97.62,22.51c0-.67.06-1.33.17-1.97,3.04-1.11,6.7-1.77,10.66-1.87v5.81c-3.75.03-7.3.21-10.56.52-.17-.81-.26-1.64-.26-2.48M92.32,23.82c.73-.79,1.77-1.55,3.04-2.22-.02.3-.03.61-.03.91,0,.92.09,1.83.26,2.72-1.58.19-3.07.41-4.44.67.15-.7.54-1.4,1.17-2.09M101.13,30.98c-1.09-1.1-1.95-2.37-2.54-3.75,3.06-.28,6.31-.43,9.85-.46v7.66c-2.71-.26-5.33-1.46-7.31-3.45M96.16,31.95c-1.64-.76-2.97-1.66-3.85-2.62-.35-.38-.62-.77-.83-1.16.12-.02.24-.04.36-.07,1.35-.24,2.81-.45,4.36-.63.07.2.15.4.23.59.72,1.7,1.75,3.22,3.05,4.53.29.29.59.56.9.82-1.54-.39-2.97-.88-4.24-1.47M91.85,33.17c-6.06-1.09-7.15-2.31-7.3-2.53.13-.19.91-1.06,4.64-1.98.74,1.85,2.47,3.53,5.05,4.89-.83-.12-1.64-.24-2.4-.38M110.73,36.63s.07,0,.1,0c2.74.43,5.03,2.25,6.16,4.73-1.97.16-3.96.26-6.25.28v-5.01ZM116.98,37.59c-.21-.21-.43-.41-.66-.6,1.02.16,1.98.4,2.83.8,1.47.68,2.59,1.84,3.17,2.92-.05,0-.1.02-.15.03-.89.15-1.85.29-2.86.4-.52-1.31-1.3-2.52-2.33-3.55M121.58,37.32c.2.03.4.06.6.1,3.57.61,5.33,1.37,5.33,1.72,0,.27-1.06.72-3.21,1.19-.48-1.1-1.4-2.13-2.72-3M120.04,44.97c0-.59-.05-1.17-.15-1.75.99-.12,1.93-.26,2.8-.42-.29.95-1.23,1.98-2.67,2.73,0-.19.02-.37.02-.56M110.73,43.8c2.5-.03,4.75-.14,6.9-.33.07.45.12.9.12,1.37,0,.55-.06,1.09-.16,1.61-2.01.56-4.36.83-6.86.93v-3.57ZM110.73,49.65c2.08-.08,4.17-.37,6.01-.85-1.21,2.25-3.3,3.87-6.01,4.24v-3.39Z"/>
    </clipPath>
    <clipPath id="clippath-2">
      <rect class="st5" x="-12676.81" y="-13079.89" width="26571.9" height="26571.9"/>
    </clipPath>
    <linearGradient id="Gradiente_sem_nome_5" data-name="Gradiente sem nome 5" x1="-.86" y1="1915.87" x2="-.58" y2="1915.87" gradientTransform="translate(-570851.4 -571804.92) rotate(-45) scale(422.17)" gradientUnits="userSpaceOnUse">
      <stop offset="0" stop-color="#fff" stop-opacity="0"/>
      <stop offset=".25" stop-color="#fff" stop-opacity="0"/>
      <stop offset=".26" stop-color="#fff" stop-opacity="0"/>
      <stop offset=".75" stop-color="#fff"/>
      <stop offset="1" stop-color="#fff"/>
    </linearGradient>
    <mask id="mask" x="-12676.81" y="-13079.89" width="26571.9" height="26571.9" maskUnits="userSpaceOnUse">
      <g id="mask128">
        <g id="g142">
          <g class="st8">
            <g id="g140">
              <g id="g138">
                <g id="g136">
                  <g id="g134">
                    <g id="g132">
                      <path id="path130" class="st1" d="M851.4,469.37l133.7-133.7-133.7-133.7-133.7,133.7,133.7,133.7Z"/>
                    </g>
                  </g>
                </g>
              </g>
            </g>
          </g>
        </g>
      </g>
    </mask>
    <linearGradient id="Gradiente_sem_nome_2" data-name="Gradiente sem nome 2" x1=".2" y1="1920.37" x2=".48" y2="1920.37" gradientTransform="translate(-202162.48 202231.34) rotate(45) scale(148.93 -148.93)" gradientUnits="userSpaceOnUse">
      <stop offset="0" stop-color="#031285"/>
      <stop offset=".25" stop-color="#031285"/>
      <stop offset=".26" stop-color="#031285"/>
      <stop offset=".75" stop-color="#031285"/>
      <stop offset="1" stop-color="#031285"/>
    </linearGradient>
  </defs>
  <rect class="st5" width="157.28" height="78.22"/>
  <g id="layer1">
    <g id="g32">
      <g class="st9">
        <g id="g34">
          <g id="g40">
            <path id="path42" class="st0" d="M33.15,47.42c-1.55-.43-1.85-.83-1.85-1.44,0-.75.62-1.19,1.66-1.19,1.2,0,2.24.38,3.49,1.27l.44.32v-3.37l-.13-.08c-1.14-.71-2.38-1.04-3.88-1.04-3.04,0-4.93,1.62-4.93,4.22,0,2.35,1.18,3.58,4.06,4.24,1.75.46,2.24.81,2.24,1.62s-.63,1.19-1.87,1.19-2.62-.52-3.8-1.41l-.45-.34v3.47l.12.08c1.02.68,2.63,1.11,4.19,1.11,3.25,0,5.19-1.59,5.19-4.25,0-2.42-1.3-3.69-4.48-4.39"/>
          </g>
          <g id="g44">
            <path id="path46" class="st0" d="M46.51,53.19c-.46.07-.96.11-1.31.11-1.81,0-2.72-.54-2.72-1.61,0-1.35,1.67-1.64,3.08-1.64h.96v3.13ZM44.76,41.88c-1.57,0-3.12.39-4.37,1.09l-.14.08v3.17l.41-.24c1.25-.71,2.37-1.02,3.63-1.02.83,0,2.22.23,2.22,1.78v.81h-1.16c-4.07,0-6.31,1.5-6.31,4.22,0,1.94,1.06,4.25,6.13,4.25,1.51,0,3.29-.21,4.54-.54l.21-.05v-8.84c0-3.09-1.78-4.72-5.16-4.72"/>
          </g>
          <g id="g48">
            <path id="path50" class="st0" d="M72.79,56.06c1.66,0,3.68-.23,5.13-.6l.21-.05v-13.24h-3.44v10.78c-.65.09-1.36.14-1.96.14-1.95,0-2.81-.73-2.81-2.37v-8.55h-3.44v8.75c0,3.5,2.01,5.13,6.31,5.13"/>
          </g>
          <g id="g52">
            <path id="path54" class="st0" d="M84.18,45.59c.6-.22,1.23-.33,1.9-.33.93,0,1.74.13,2.4.39l.38.15v-3.45l-.21-.05c-.9-.24-1.62-.33-2.57-.33-1.82,0-3.72.49-5.23,1.33l-.14.08v12.39h3.47v-10.18Z"/>
          </g>
          <g id="g56">
            <path id="path58" class="st0" d="M96.92,53.19c-.46.07-.96.11-1.31.11-1.81,0-2.72-.54-2.72-1.61,0-1.35,1.67-1.64,3.08-1.64h.96v3.13ZM95.17,41.88c-1.57,0-3.12.39-4.37,1.09l-.14.08v3.17l.41-.24c1.25-.71,2.37-1.02,3.63-1.02.83,0,2.22.23,2.22,1.78v.81h-1.16c-4.07,0-6.31,1.5-6.31,4.22,0,1.94,1.06,4.25,6.13,4.25,1.51,0,3.29-.21,4.54-.54l.21-.05v-8.84c0-3.09-1.78-4.72-5.16-4.72"/>
          </g>
          <g id="g60">
            <path id="path62" class="st0" d="M56.96,53.01c-.41,0-.82-.04-1.22-.12v-7.72c.44-.07.92-.11,1.37-.11,2.5,0,3.99,1.44,3.99,3.84,0,2.61-1.51,4.11-4.14,4.11M57.13,41.88c-2.06,0-3.8.49-4.65.78l-.19.06v18.34h3.44v-5.11c.44.07.93.1,1.4.1,4.6,0,7.46-2.78,7.46-7.25s-2.86-6.93-7.46-6.93"/>
          </g>
          <g id="g64">
            <path id="path66" class="st0" d="M58.86,62.65c.23-.87.8-1.39,1.58-1.39.87,0,1.34.47,1.42,1.39h-2.99ZM60.48,59.67c-2.04,0-3.51,1.62-3.51,3.84s1.53,3.73,3.8,3.73c1,0,1.93-.24,2.54-.67l.06-.04v-1.72l-.23.15c-.69.46-1.37.65-2.26.65s-1.94-.52-2.09-1.65h4.83v-.93c0-2.13-1.14-3.36-3.14-3.36"/>
          </g>
          <g id="g68">
            <path id="path70" class="st0" d="M68.17,59.56c-1.05,0-2.26.23-3.25.61l-.09.04v6.78h1.85v-5.54c.39-.11.88-.17,1.36-.17.91,0,1.35.4,1.35,1.22v4.49h1.84v-4.63c0-1.88-1-2.79-3.06-2.79"/>
          </g>
          <g id="g72">
            <path id="path74" class="st0" d="M74.18,62.54c.23-.87.81-1.39,1.58-1.39.87,0,1.35.47,1.42,1.39h-2.99ZM75.8,59.56c-2.04,0-3.51,1.62-3.51,3.84s1.53,3.73,3.8,3.73c1,0,1.93-.24,2.54-.67l.06-.04v-1.72l-.23.15c-.69.46-1.37.65-2.26.65s-1.94-.52-2.09-1.65h4.83v-.93c0-2.13-1.14-3.36-3.14-3.36"/>
          </g>
          <g id="g76">
            <path id="path78" class="st0" d="M96.52,64.91l-1.88-5.2h-1.99l2.94,7.43-1.03,2.66h1.84l3.89-10.09h-1.92l-1.85,5.2Z"/>
          </g>
          <g id="g80">
            <path id="path82" class="st0" d="M88.97,65.34c-1.37,0-2.01-.65-2.01-2.05,0-1.28.79-2.04,2.12-2.04.24,0,.49.02.73.06v3.85c-.29.12-.58.18-.84.18M91.54,59.97c-.45-.15-1.38-.41-2.47-.41-2.45,0-3.96,1.41-3.96,3.68s1.47,3.71,3.82,3.71c.32,0,.64-.08.88-.17-.03,1.38-1.07,1.59-1.69,1.59-.77,0-1.48-.19-2.23-.6l-.22-.12v1.77l.09.04c.7.32,1.54.5,2.36.5,1.71,0,3.53-.83,3.53-3.17v-6.79s-.11-.03-.11-.03Z"/>
          </g>
          <g id="g84">
            <path id="path86" class="st0" d="M83.18,59.6c-.97,0-1.99.26-2.79.71l-.08.04v6.62h1.85v-5.44c.32-.12.66-.17,1.02-.17.5,0,.93.07,1.28.21l.2.08v-1.84l-.11-.03c-.48-.13-.87-.18-1.38-.18"/>
          </g>
          <g id="g88">
            <path id="path90" class="st3" d="M124.3,40.33c-.48-1.1-1.4-2.13-2.72-3,.2.03.4.06.6.1,3.57.61,5.33,1.37,5.33,1.72,0,.27-1.06.72-3.21,1.19M120.03,45.53c0-.19.02-.37.02-.56,0-.59-.05-1.17-.15-1.75.99-.12,1.93-.26,2.8-.42-.29.95-1.23,1.98-2.67,2.73M119.32,41.14c-.52-1.31-1.3-2.52-2.33-3.55-.21-.21-.43-.41-.65-.6,1.02.16,1.98.4,2.83.8,1.47.68,2.59,1.85,3.17,2.92-.05,0-.1.02-.15.03-.89.15-1.85.29-2.86.4M117.59,46.44c-2.01.55-4.36.83-6.86.93v-3.57c2.5-.03,4.75-.14,6.9-.33.07.45.12.9.12,1.37,0,.55-.06,1.09-.16,1.61M110.73,53.05v-3.39c2.08-.08,4.17-.37,6.01-.85-1.21,2.25-3.31,3.87-6.01,4.24M110.73,36.63s.07,0,.1,0c2.74.43,5.03,2.25,6.16,4.73-1.97.16-3.97.26-6.26.28v-5.01ZM108.44,16.38c-3.54.09-6.94.61-9.89,1.5.59-1.41,1.46-2.71,2.57-3.82,1.99-1.99,4.61-3.19,7.32-3.45v5.78ZM108.44,24.48c-3.75.03-7.3.21-10.56.52-.17-.81-.26-1.64-.26-2.48,0-.67.06-1.33.17-1.97,3.04-1.11,6.7-1.77,10.66-1.87v5.81ZM108.44,34.43c-2.71-.26-5.33-1.46-7.31-3.45-1.1-1.1-1.95-2.37-2.54-3.75,3.06-.28,6.31-.43,9.85-.46v7.66ZM96.16,31.95c-1.64-.76-2.97-1.66-3.85-2.62-.35-.38-.62-.77-.83-1.16.12-.02.24-.04.36-.07,1.35-.24,2.81-.45,4.36-.63.07.2.15.4.23.59.72,1.7,1.75,3.22,3.05,4.53.29.29.59.56.9.82-1.54-.39-2.97-.88-4.24-1.47M91.85,33.17c-6.06-1.09-7.15-2.31-7.3-2.53.13-.19.9-1.06,4.64-1.98.74,1.85,2.47,3.53,5.05,4.89-.83-.12-1.64-.24-2.4-.38M92.32,23.82c.73-.79,1.77-1.55,3.04-2.22-.02.3-.03.61-.03.91,0,.92.09,1.83.26,2.73-1.58.19-3.07.41-4.44.67.15-.7.54-1.4,1.17-2.09M127.19,36.77c-1.02-.45-2.44-.86-4.23-1.2-3.31-.63-7.65-.99-12.23-1.04V8.26h-1.15c-1.92,0-3.79.38-5.55,1.12-1.7.72-3.22,1.75-4.53,3.05-1.31,1.31-2.34,2.83-3.05,4.53-.26.62-.48,1.25-.65,1.9-.2.09-.4.17-.6.26-4.06,1.87-6.33,4.45-6.41,7.28-1.55.37-2.83.79-3.82,1.24-.79.36-1.39.74-1.84,1.15-.74.69-.89,1.39-.89,1.85s.15,1.15.89,1.85c.44.41,1.04.79,1.84,1.15,1.4.63,3.37,1.2,5.86,1.68,4.75.91,10.95,1.43,17.61,1.49v18.72h1.16c2.79,0,5.41-1.14,7.38-3.11,1.28-1.28,2.19-2.87,2.67-4.57.1-.04.19-.1.29-.14,2.93-1.35,4.59-3.23,4.73-5.31,1.01-.25,1.85-.53,2.52-.83,1.41-.63,2.13-1.44,2.13-2.39s-.72-1.76-2.13-2.39"/>
          </g>
          <g id="g92">
            <path id="path94" class="st7" d="M124.3,40.33c-.48-1.1-1.4-2.13-2.72-3,.2.03.4.06.6.1,3.57.61,5.33,1.37,5.33,1.72,0,.27-1.06.72-3.21,1.19M120.03,45.53c0-.19.02-.37.02-.56,0-.59-.05-1.17-.15-1.75.99-.12,1.93-.26,2.8-.42-.29.95-1.23,1.98-2.67,2.73M119.32,41.14c-.52-1.31-1.3-2.52-2.33-3.55-.21-.21-.43-.41-.65-.6,1.02.16,1.98.4,2.83.8,1.47.68,2.59,1.85,3.17,2.92-.05,0-.1.02-.15.03-.89.15-1.85.29-2.86.4M117.59,46.44c-2.01.55-4.36.83-6.86.93v-3.57c2.5-.03,4.75-.14,6.9-.33.07.45.12.9.12,1.37,0,.55-.06,1.09-.16,1.61M110.73,53.05v-3.39c2.08-.08,4.17-.37,6.01-.85-1.21,2.25-3.31,3.87-6.01,4.24M110.73,36.63s.07,0,.1,0c2.74.43,5.03,2.25,6.16,4.73-1.97.16-3.97.26-6.26.28v-5.01ZM108.44,16.38c-3.54.09-6.94.61-9.89,1.5.59-1.41,1.46-2.71,2.57-3.82,1.99-1.99,4.61-3.19,7.32-3.45v5.78ZM108.44,24.48c-3.75.03-7.3.21-10.56.52-.17-.81-.26-1.64-.26-2.48,0-.67.06-1.33.17-1.97,3.04-1.11,6.7-1.77,10.66-1.87v5.81ZM108.44,34.43c-2.71-.26-5.33-1.46-7.31-3.45-1.1-1.1-1.95-2.37-2.54-3.75,3.06-.28,6.31-.43,9.85-.46v7.66ZM96.16,31.95c-1.64-.76-2.97-1.66-3.85-2.62-.35-.38-.62-.77-.83-1.16.12-.02.24-.04.36-.07,1.35-.24,2.81-.45,4.36-.63.07.2.15.4.23.59.72,1.7,1.75,3.22,3.05,4.53.29.29.59.56.9.82-1.54-.39-2.97-.88-4.24-1.47M91.85,33.17c-6.06-1.09-7.15-2.31-7.3-2.53.13-.19.9-1.06,4.64-1.98.74,1.85,2.47,3.53,5.05,4.89-.83-.12-1.64-.24-2.4-.38M92.32,23.82c.73-.79,1.77-1.55,3.04-2.22-.02.3-.03.61-.03.91,0,.92.09,1.83.26,2.73-1.58.19-3.07.41-4.44.67.15-.7.54-1.4,1.17-2.09M127.19,36.77c-1.02-.45-2.44-.86-4.23-1.2-3.31-.63-7.65-.99-12.23-1.04V8.26h-1.15c-1.92,0-3.79.38-5.55,1.12-1.7.72-3.22,1.75-4.53,3.05-1.31,1.31-2.34,2.83-3.05,4.53-.26.62-.48,1.25-.65,1.9-.2.09-.4.17-.6.26-4.06,1.87-6.33,4.45-6.41,7.28-1.55.37-2.83.79-3.82,1.24-.79.36-1.39.74-1.84,1.15-.74.69-.89,1.39-.89,1.85s.15,1.15.89,1.85c.44.41,1.04.79,1.84,1.15,1.4.63,3.37,1.2,5.86,1.68,4.75.91,10.95,1.43,17.61,1.49v18.72h1.16c2.79,0,5.41-1.14,7.38-3.11,1.28-1.28,2.19-2.87,2.67-4.57.1-.04.19-.1.29-.14,2.93-1.35,4.59-3.23,4.73-5.31,1.01-.25,1.85-.53,2.52-.83,1.41-.63,2.13-1.44,2.13-2.39s-.72-1.76-2.13-2.39"/>
          </g>
        </g>
      </g>
    </g>
    <g id="g96">
      <g class="st6">
        <g id="g98">
          <g id="g104">
            <g class="st4">
              <g id="g144">
                <g id="g146">
                  <path id="path160" class="st2" d="M109.58,8.26c-1.92,0-3.79.38-5.55,1.12h0c-1.7.72-3.22,1.75-4.53,3.05h0c-1.31,1.31-2.34,2.83-3.05,4.53h0c-.26.62-.48,1.25-.65,1.9h0c-.2.09-.4.17-.6.26h0c-4.06,1.87-6.33,4.45-6.41,7.28h0c-1.55.37-2.83.79-3.82,1.24h0c-.79.36-1.39.74-1.84,1.15h0c-.74.69-.89,1.39-.89,1.85h0c0,.46.15,1.15.89,1.85h0c.44.41,1.04.79,1.84,1.15h0c1.4.63,3.37,1.2,5.86,1.68h0c4.75.91,10.95,1.43,17.61,1.49h0v18.72h1.16c2.79,0,5.41-1.14,7.38-3.11h0c1.28-1.28,2.19-2.87,2.67-4.57h0c.1-.04.19-.1.29-.14h0c2.93-1.35,4.59-3.23,4.73-5.31h0c1.01-.25,1.85-.53,2.52-.83h0c1.41-.63,2.13-1.44,2.13-2.39h0c0-.96-.72-1.76-2.13-2.39h0c-1.02-.45-2.44-.86-4.23-1.2h0c-3.31-.63-7.65-.99-12.23-1.04h0V8.26h-1.15ZM101.12,14.05c1.99-1.99,4.61-3.19,7.32-3.45h0v5.78c-3.54.09-6.94.61-9.89,1.5h0c.59-1.41,1.46-2.71,2.57-3.82M97.62,22.51c0-.67.06-1.33.17-1.97h0c3.04-1.11,6.7-1.77,10.66-1.87h0v5.81c-3.75.03-7.3.21-10.56.52h0c-.17-.81-.26-1.64-.26-2.48M92.32,23.82c.73-.79,1.77-1.55,3.04-2.22h0c-.02.3-.03.61-.03.91h0c0,.92.09,1.83.26,2.72h0c-1.58.19-3.07.41-4.44.67h0c.15-.7.54-1.4,1.17-2.09M101.13,30.98c-1.09-1.1-1.95-2.37-2.54-3.75h0c3.06-.28,6.31-.43,9.85-.46h0v7.66c-2.71-.26-5.33-1.46-7.31-3.45M96.16,31.95c-1.64-.76-2.97-1.66-3.85-2.62h0c-.35-.38-.62-.77-.83-1.16h0c.12-.02.24-.04.36-.07h0c1.35-.24,2.81-.45,4.36-.63h0c.07.2.15.4.23.59h0c.72,1.7,1.75,3.22,3.05,4.53h0c.29.29.59.56.9.82h0c-1.54-.39-2.97-.88-4.24-1.47M91.85,33.17c-6.06-1.09-7.15-2.31-7.3-2.53h0c.13-.19.91-1.06,4.64-1.98h0c.74,1.85,2.47,3.53,5.05,4.89h0c-.83-.12-1.64-.24-2.4-.38M110.73,36.63s.07,0,.1,0h0c2.74.43,5.03,2.25,6.16,4.73h0c-1.97.16-3.96.26-6.25.28h0v-5.01ZM116.98,37.59c-.21-.21-.43-.41-.66-.6h0c1.02.16,1.98.4,2.83.8h0c1.47.68,2.59,1.84,3.17,2.92h0c-.05,0-.1.02-.15.03h0c-.89.15-1.85.29-2.86.4h0c-.52-1.31-1.3-2.52-2.33-3.55M121.58,37.32c.2.03.4.06.6.1h0c3.57.61,5.33,1.37,5.33,1.72h0c0,.27-1.06.72-3.21,1.19h0c-.48-1.1-1.4-2.13-2.72-3M120.04,44.97c0-.59-.05-1.17-.15-1.75h0c.99-.12,1.93-.26,2.8-.42h0c-.29.95-1.23,1.98-2.67,2.73h0c0-.19.02-.37.02-.56M110.73,43.8c2.5-.03,4.75-.14,6.9-.33h0c.07.45.12.9.12,1.37h0c0,.55-.06,1.09-.16,1.61h0c-2.01.56-4.36.83-6.86.93h0v-3.57ZM110.73,49.65c2.08-.08,4.17-.37,6.01-.85h0c-1.21,2.25-3.3,3.87-6.01,4.24h0v-3.39Z"/>
                </g>
              </g>
            </g>
          </g>
        </g>
      </g>
    </g>
  </g>
</svg>