<?xml version="1.0" encoding="UTF-8"?>
<svg id="Camada_1" xmlns="http://www.w3.org/2000/svg" version="1.1" viewBox="0 0 932.58 285.72">
  <!-- Generator: Adobe Illustrator 29.6.1, SVG Export Plug-In . SVG Version: 2.1.1 Build 9)  -->
  <defs>
    <style>
      .st0 {
        fill: #fff;
      }
    </style>
  </defs>
  <path class="st0" d="M399.08,156.59c0,2.42-.31,4.59-.92,6.53-.61,1.93-1.42,3.64-2.43,5.11-1.01,1.48-2.18,2.73-3.53,3.77-1.35,1.04-2.75,1.88-4.19,2.54-1.45.66-2.91,1.15-4.41,1.46-1.49.31-2.9.47-4.22.47h-47.26v-12.25h47.26c2.36,0,4.19-.69,5.49-2.07,1.3-1.38,1.96-3.24,1.96-5.56,0-1.13-.17-2.17-.52-3.11-.35-.94-.84-1.76-1.48-2.45-.64-.69-1.43-1.23-2.36-1.6-.93-.38-1.96-.57-3.09-.57h-28.18c-1.98,0-4.12-.35-6.41-1.06-2.29-.71-4.42-1.84-6.38-3.42-1.96-1.57-3.6-3.63-4.9-6.17-1.3-2.54-1.96-5.65-1.96-9.33s.65-6.78,1.96-9.31c1.3-2.53,2.94-4.59,4.9-6.17,1.96-1.59,4.09-2.73,6.38-3.44,2.29-.71,4.43-1.06,6.41-1.06h41.7v12.25h-41.7c-2.33,0-4.14.71-5.44,2.12-1.3,1.41-1.96,3.28-1.96,5.61s.65,4.22,1.96,5.58c1.3,1.37,3.12,2.05,5.44,2.05h28.27c1.32.03,2.72.21,4.19.54,1.48.33,2.94.84,4.41,1.53,1.46.69,2.85,1.56,4.17,2.61,1.32,1.05,2.49,2.32,3.51,3.79,1.02,1.48,1.83,3.17,2.43,5.09.6,1.92.9,4.08.9,6.5Z"/>
  <path class="st0" d="M423.54,176.48h-12.25v-67.57h12.25v67.57Z"/>
  <path class="st0" d="M506.47,170.31c0,.88-.16,1.7-.47,2.45-.31.75-.75,1.41-1.3,1.95-.55.55-1.2.98-1.96,1.3-.75.31-1.57.47-2.45.47h-44.2c-1.13,0-2.35-.13-3.65-.4-1.3-.27-2.59-.68-3.86-1.25s-2.49-1.3-3.65-2.19c-1.16-.9-2.19-1.98-3.09-3.25s-1.61-2.75-2.14-4.43c-.53-1.68-.8-3.57-.8-5.68v-33.17c0-1.13.13-2.35.4-3.65.27-1.3.68-2.59,1.25-3.86s1.3-2.49,2.21-3.65c.91-1.16,2-2.19,3.27-3.09s2.74-1.61,4.41-2.14c1.66-.53,3.55-.8,5.65-.8h49.81v12.25h-49.81c-1.6,0-2.83.42-3.68,1.27-.85.85-1.27,2.1-1.27,3.77v33.08c0,1.57.43,2.79,1.3,3.65.86.86,2.08,1.3,3.65,1.3h38.12v-15.36h-32.61v-12.35h38.69c.88,0,1.7.16,2.45.49s1.41.78,1.96,1.34c.55.57.98,1.22,1.3,1.95.31.74.47,1.53.47,2.38v27.61Z"/>
  <path class="st0" d="M582.23,176.48h-44.2c-1.7,0-3.55-.3-5.56-.9-2.01-.6-3.87-1.58-5.58-2.94-1.71-1.37-3.14-3.14-4.29-5.32-1.15-2.18-1.72-4.86-1.72-8.03v-44.2c0-.85.16-1.65.47-2.4.31-.75.75-1.41,1.3-1.98.55-.57,1.2-1,1.96-1.32.75-.31,1.57-.47,2.45-.47h55.18v12.25h-49.1v38.12c0,1.6.42,2.83,1.27,3.68.85.85,2.09,1.27,3.72,1.27h44.1v12.25ZM576.72,148.87h-38.69v-12.35h38.69v12.35Z"/>
  <path class="st0" d="M656.07,176.48h-44.2c-1.13,0-2.35-.13-3.65-.4-1.3-.27-2.59-.68-3.86-1.25s-2.49-1.3-3.65-2.19c-1.16-.9-2.19-1.98-3.09-3.25s-1.61-2.75-2.14-4.43c-.53-1.68-.8-3.57-.8-5.68v-33.17c0-1.13.13-2.35.4-3.65.27-1.3.68-2.59,1.25-3.86s1.3-2.49,2.21-3.65c.91-1.16,2-2.19,3.27-3.09s2.74-1.61,4.41-2.14c1.66-.53,3.55-.8,5.65-.8h44.2v12.25h-44.2c-1.6,0-2.83.42-3.68,1.27-.85.85-1.27,2.1-1.27,3.77v33.08c0,1.57.43,2.79,1.3,3.65.86.86,2.08,1.3,3.65,1.3h44.2v12.25Z"/>
  <path class="st0" d="M715.25,136.52h43.02v-27.61h12.25v67.57h-12.25v-27.61h-43.02v27.61h-12.25v-67.57h12.25v27.61Z"/>
  <path class="st0" d="M857.69,149.15c0,4.12-.71,7.9-2.12,11.36-1.41,3.46-3.38,6.44-5.89,8.95-2.51,2.51-5.49,4.47-8.93,5.87-3.44,1.4-7.19,2.1-11.24,2.1h-16.59c-4.05,0-7.81-.7-11.26-2.1-3.46-1.4-6.44-3.35-8.95-5.87-2.51-2.51-4.48-5.5-5.91-8.95-1.43-3.46-2.14-7.24-2.14-11.36v-12.91c0-4.08.71-7.86,2.14-11.33,1.43-3.47,3.4-6.46,5.91-8.95,2.51-2.5,5.5-4.45,8.95-5.87,3.46-1.41,7.21-2.12,11.26-2.12h16.59c4.05,0,7.8.71,11.24,2.12s6.42,3.37,8.93,5.87c2.51,2.5,4.48,5.48,5.89,8.95,1.41,3.47,2.12,7.25,2.12,11.33v12.91ZM845.44,136.24c0-2.42-.38-4.61-1.15-6.57-.77-1.96-1.85-3.64-3.25-5.04-1.4-1.4-3.08-2.48-5.04-3.25-1.96-.77-4.12-1.15-6.48-1.15h-16.59c-2.39,0-4.56.39-6.53,1.15-1.96.77-3.65,1.85-5.07,3.25s-2.51,3.08-3.27,5.04c-.77,1.96-1.15,4.15-1.15,6.57v12.91c0,2.42.38,4.61,1.15,6.57.77,1.96,1.86,3.64,3.27,5.04,1.41,1.4,3.1,2.48,5.07,3.25,1.96.77,4.14,1.15,6.53,1.15h16.49c2.39,0,4.56-.38,6.53-1.15,1.96-.77,3.65-1.85,5.07-3.25,1.41-1.4,2.5-3.08,3.27-5.04.77-1.96,1.15-4.15,1.15-6.57v-12.91Z"/>
  <path class="st0" d="M932.23,176.48h-44.2c-1.13,0-2.35-.13-3.65-.4-1.3-.27-2.59-.68-3.86-1.25s-2.49-1.3-3.65-2.19c-1.16-.9-2.19-1.98-3.09-3.25s-1.61-2.75-2.14-4.43c-.53-1.68-.8-3.57-.8-5.68v-33.17c0-1.13.13-2.35.4-3.65.27-1.3.68-2.59,1.25-3.86s1.3-2.49,2.21-3.65c.91-1.16,2-2.19,3.27-3.09s2.74-1.61,4.41-2.14c1.66-.53,3.55-.8,5.65-.8h44.2v12.25h-44.2c-1.6,0-2.83.42-3.68,1.27-.85.85-1.27,2.1-1.27,3.77v33.08c0,1.57.43,2.79,1.3,3.65.86.86,2.08,1.3,3.65,1.3h44.2v12.25Z"/>
  <path class="st0" d="M196.66,117.41l5.06,25.31h-117.46l5.06-25.31h107.33M210.49,75.22H75.48v16.88h135.01v-16.88ZM210.49,100.54H75.48l-8.44,42.19v16.88h8.44v50.63h84.38v-50.63h33.75v50.63h16.88v-50.63h8.44v-16.88l-8.44-42.19Z"/>
  <path class="st0" d="M142.99,285.72C64.14,285.72,0,221.57,0,142.73S64.14-.26,142.99-.26s142.99,64.14,142.99,142.99-64.14,142.99-142.99,142.99ZM142.99,9.54C69.55,9.54,9.8,69.29,9.8,142.73s59.75,133.19,133.19,133.19,133.19-59.75,133.19-133.19S216.43,9.54,142.99,9.54Z"/>
</svg>