<?xml version="1.0" encoding="UTF-8"?>
<svg id="Camada_1" xmlns="http://www.w3.org/2000/svg" version="1.1" viewBox="0 0 448 512">
  <!-- Generator: Adobe Illustrator 29.6.1, SVG Export Plug-In . SVG Version: 2.1.1 Build 9)  -->
  <defs>
    <style>
      .st0 {
        fill: #003055;
      }
    </style>
  </defs>
  <path class="st0" d="M380.9,97.1c-41.9-42-97.7-65.1-157-65.1C101.5,32,1.9,131.6,1.9,254c0,39.1,10.2,77.3,29.6,111L0,480l117.7-30.9c32.4,17.7,68.9,27,106.1,27h.1c122.3,0,224.1-99.6,224.1-222,0-59.3-25.2-115-67.1-157ZM332.4,333.5c-4.6,13-26.7,24.8-37.4,26.4-17.6,2.6-31.4,1.3-66.6-13.9-55.7-24.1-92-80.1-94.8-83.8-2.7-3.7-22.6-30.1-22.6-57.4s14.3-40.7,19.4-46.3c5.1-5.5,11.1-6.9,14.8-6.9s7.4,0,10.6.2c3.4.2,8-1.3,12.5,9.5,4.6,11.1,15.7,38.4,17.1,41.2,1.4,2.8,2.3,6,.5,9.7-10.6,21.2-22,20.5-16.3,30.3,21.5,36.9,42.9,49.7,75.5,66,5.5,2.8,8.8,2.3,12-1.4,3.3-3.8,13.9-16.2,17.6-21.8s7.4-4.7,12.5-2.8c5.1,1.8,32.4,15.2,37.9,18,5.5,2.7,9.2,4.1,10.5,6.6,1.4,2.3,1.4,13.4-3.2,26.4Z"/>
</svg>